{
.appVersion = "1264";
DisplayStrings = (
"H/kgreenlandic H"
);
copyright = "Copyright 2019 The Tomorrow Project Authors (https://github.com/googlefonts/Tomorrow)";
customParameters = (
{
name = vendorID;
value = JUST;
},
{
name = license;
value = "This Font Software is licensed under the SIL Open Font License, Version 1.1. This license is available with a FAQ at: http://scripts.sil.org/OFL";
},
{
name = licenseURL;
value = "http://scripts.sil.org/OFL";
},
{
name = fsType;
value = (
);
}
);
date = "2019-09-18 21:08:24 +0000";
designer = "Tony de Marco, Monica Rizzolli";
designerURL = "http://contrast.parts";
familyName = Tomorrow;
featurePrefixes = (
{
automatic = 1;
code = "languagesystem DFLT dflt;\012languagesystem latn dflt;\012languagesystem cyrl dflt;\012languagesystem latn CAT;\012languagesystem latn ROM;\012languagesystem latn MOL;\012languagesystem latn KAZ;\012languagesystem latn TRK;\012languagesystem latn CRT;\012languagesystem latn AZE;\012languagesystem cyrl TAT;\012";
name = Languagesystems;
}
);
features = (
{
automatic = 1;
code = "feature locl;\012feature ordn;\012feature sups;\012feature frac;\012";
name = aalt;
},
{
automatic = 1;

glyphs = (
{
glyphname = A;
lastChange = "2019-09-10 19:27:05 +0000";
layers = (
{
anchors = (
{
name = botton;
position = "{427, 0}";
},
{
name = top;
position = "{547.334, 737}";
}
);
layerId = "2BED5241-FEE2-452B-8B42-4A46EDD0955E";
paths = (
{
closed = 1;
nodes = (
"315 0 LINE",
"351.491 109 LINE",
"538.949 109 LINE",
"537 0 LINE",
"828.998 0 LINE",
"798.39 737 LINE",
"308.154 737 LINE",
"10.435 0 LINE"
);
},
{
closed = 1;
nodes = (
"505.154 568 LINE",
"547.154 568 LINE",
"542.184 290 LINE",
"412.086 290 LINE"
);
}
);
width = 840;
}
);
leftKerningGroup = A;
rightKerningGroup = A;
unicode = 0041;
},
{
glyphname = AE;
lastChange = "2019-09-10 19:27:05 +0000";
layers = (
{
anchors = (
{
name = top;
position = "{555.953, 737}";
}
);
layerId = "2BED5241-FEE2-452B-8B42-4A46EDD0955E";
paths = (
{
closed = 1;
nodes = (
"314 0 LINE",
"350.491 109 LINE",
"537.949 109 LINE",
"536 0 LINE",
"1128.593 0 LINE",
"1163.329 197 LINE",
"821.026 197 LINE",
"817.026 289 LINE",
"1136.551 289 LINE",
"1164.587 448 LINE",
"810.112 448 LINE",
"806.113 540 LINE",
"1223.81 540 LINE",
"1258.546 737 LINE",
"308.154 737 LINE",
"10.435 0 LINE"
);
},
{
closed = 1;
nodes = (
"504.154 568 LINE",
"546.154 568 LINE",
"541.184 290 LINE",
"411.086 290 LINE"
);
}
);
width = 1167.6;
}
);
leftKerningGroup = A;
leftMetricsKey = A;
rightKerningGroup = E;
rightMetricsKey = E;
unicode = 00C6;
},
{
glyphname = B;
lastChange = "2019-09-10 19:27:05 +0000";
layers = (
{
layerId = "2BED5241-FEE2-452B-8B42-4A46EDD0955E";
paths = (
{
closed = 1;
nodes = (
"664.5 0 LINE",
"792.251 95 LINE",
"833.864 331 LINE",
"766.502 397 LINE",
"830.789 444 LINE",
"865.702 642 LINE",
"771.453 737 LINE",
"174.953 737 LINE",
"45 0 LINE"
);
},
{
closed = 1;
nodes = (
"389.385 309 LINE",
"539.985 309 LINE",
"512.478 153 LINE",
"361.878 153 LINE"
);
},
{
closed = 1;
nodes = (
"437.875 584 LINE",
"581.475 584 LINE",
"559.963 462 LINE",
"416.363 462 LINE"
);
}
);
width = 809.7;
}
);
leftKerningGroup = H;
leftMetricsKey = H;
rightKerningGroup = B;
unicode = 0042;
},
{
glyphname = C;
lastChange = "2019-09-10 19:27:05 +0000";
layers = (
{
anchors = (
{
name = botton;
position = "{391, 0}";
},
{
name = top;
position = "{523.953, 737}";
}
);
layerId = "2BED5241-FEE2-452B-8B42-4A46EDD0955E";
paths = (
{
closed = 1;
nodes = (
"644 0 LINE",
"771.751 95 LINE",
"810.014 312 LINE",
"512.014 312 LINE",
"483.978 153 LINE",
"350.978 153 LINE",
"426.975 584 LINE",
"557.975 584 LINE",
"530.468 428 LINE",
"827.468 428 LINE",
"865.202 642 LINE",
"770.953 737 LINE",
"274.953 737 LINE",
"147.202 642 LINE",
"50.751 95 LINE",
"145 0 LINE"
);
}
);
width = 786;
}
);
leftKerningGroup = O;
leftMetricsKey = O;
rightKerningGroup = C;
rightMetricsKey = O;
unicode = 0043;
},
{
glyphname = D;
lastChange = "2019-09-10 19:27:05 +0000";
layers = (
{
anchors = (
{
name = center;
position = "{250.446, 374}";
},
{
name = top;
position = "{513.453, 737}";
}
);
layerId = "2BED5241-FEE2-452B-8B42-4A46EDD0955E";
paths = (
{
closed = 1;
nodes = (
"612.5 0 LINE",
"804.949 150 LINE",
"881.828 586 LINE",
"742.453 737 LINE",
"174.953 737 LINE",
"45 0 LINE"
);
},
{
closed = 1;
nodes = (
"437.875 584 LINE",
"591.475 584 LINE",
"515.478 153 LINE",
"361.878 153 LINE"
);
}
);
width = 812.83;
}
);
leftKerningGroup = H;
leftMetricsKey = H;
rightKerningGroup = D;
unicode = 0044;
},
{
glyphname = Eth;
lastChange = "2019-09-10 19:27:05 +0000";
layers = (
{
components = (
{
name = D;
}
);
layerId = "2BED5241-FEE2-452B-8B42-4A46EDD0955E";
paths = (
{
closed = 1;
nodes = (
"473.28 305 LINE",
"497.613 443 LINE",
"68.613 443 LINE",
"44.28 305 LINE"
);
}
);
width = 811;
}
);
rightKerningGroup = D;
unicode = 00D0;
},
{
glyphname = E;
lastChange = "2019-09-10 19:27:05 +0000";
layers = (
{
anchors = (
{
name = botton;
position = "{365.5, 0}";
},
{
name = ogonek;
position = "{692.5, 0}";
},
{
name = top;
position = "{496.453, 737}";
}
);
layerId = "2BED5241-FEE2-452B-8B42-4A46EDD0955E";
paths = (
{
closed = 1;
nodes = (
"697.5 0 LINE",
"732.236 197 LINE",
"369.636 197 LINE",
"385.858 289 LINE",
"706.458 289 LINE",
"734.494 448 LINE",
"413.894 448 LINE",
"430.117 540 LINE",
"792.717 540 LINE",
"827.453 737 LINE",
"174.953 737 LINE",
"45 0 LINE"
);
}
);
width = 736.5;
}
);
leftKerningGroup = H;
leftMetricsKey = H;
rightKerningGroup = E;
unicode = 0045;
},
{
glyphname = F;
lastChange = "2019-09-10 19:27:05 +0000";
layers = (
{
layerId = "2BED5241-FEE2-452B-8B42-4A46EDD0955E";
paths = (
{
closed = 1;
nodes = (
"340 0 LINE",
"385.669 259 LINE",
"682.669 259 LINE",
"713.702 435 LINE",
"416.702 435 LINE",
"435.217 540 LINE",
"780.217 540 LINE",
"814.953 737 LINE",
"174.953 737 LINE",
"45 0 LINE"
);
}
);
width = 713;
}
);
leftKerningGroup = H;
leftMetricsKey = H;
rightKerningGroup = F;
unicode = 0046;
},
{
glyphname = G;
lastChange = "2019-09-10 19:27:05 +0000";
layers = (
{
anchors = (
{
name = botton;
position = "{390, 0}";
},
{
name = top;
position = "{526.953, 737}";
}
);
layerId = "2BED5241-FEE2-452B-8B42-4A46EDD0955E";
paths = (
{
closed = 1;
nodes = (
"468 0 LINE",
"551.808 61.298 LINE",
"541 0 LINE",
"767 0 LINE",
"838.236 404 LINE",
"514.236 404 LINE",
"487.258 251 LINE",
"584.162 251 LINE",
"450.978 153 LINE",
"350.978 153 LINE",
"426.975 584 LINE",
"571.975 584 LINE",
"552.932 476 LINE",
"850.755 475 LINE",
"880.202 642 LINE",
"785.953 737 LINE",
"274.953 737 LINE",
"147.202 642 LINE",
"50.751 95 LINE",
"145 0 LINE"
);
}
);
width = 812.2;
}
);
leftKerningGroup = O;
leftMetricsKey = O;
rightKerningGroup = G;
unicode = 0047;
},
{
glyphname = H;
lastChange = "2019-09-10 19:27:05 +0000";
layers = (
{
anchors = (
{
name = top;
position = "{535.953, 737}";
}
);
layerId = "2BED5241-FEE2-452B-8B42-4A46EDD0955E";
paths = (
{
closed = 1;
nodes = (
"334.9 0 LINE",
"384.624 282 LINE",
"526.724 282 LINE",
"477 0 LINE",
"766.9 0 LINE",
"896.853 737 LINE",
"606.953 737 LINE",
"561.284 478 LINE",
"419.184 478 LINE",
"464.853 737 LINE",
"174.953 737 LINE",
"45 0 LINE"
);
}
);
width = 811.9;
}
);
leftKerningGroup = H;
rightKerningGroup = H;
unicode = 0048;
},
{
glyphname = Hbar;
lastChange = "2019-09-10 19:27:05 +0000";
layers = (
{
components = (
{
name = H;
}
);
layerId = "2BED5241-FEE2-452B-8B42-4A46EDD0955E";
paths = (
{
closed = 1;
nodes = (
"913.451 547 LINE",
"934.257 665 LINE",
"113.257 665 LINE",
"92.451 547 LINE"
);
}
);
width = 811.9;
}
);
unicode = 0126;
},
{
glyphname = I;
lastChange = "2019-09-10 19:27:05 +0000";
layers = (
{
anchors = (
{
name = botton;
position = "{267.5, 0}";
},
{
name = ogonek;
position = "{267.5, 0}";
},
{
name = top;
position = "{395.453, 737}";
},
{
name = topleft;
position = "{397.453, 737}";
}
);
layerId = "2BED5241-FEE2-452B-8B42-4A46EDD0955E";
paths = (
{
closed = 1;
nodes = (
"507 0 LINE",
"541.736 197 LINE",
"442.563 197 LINE",
"503.044 540 LINE",
"602.217 540 LINE",
"636.953 737 LINE",
"157.953 737 LINE",
"123.217 540 LINE",
"222.389 540 LINE",
"161.908 197 LINE",
"62.736 197 LINE",
"28 0 LINE"
);
}
);
width = 535;
}
);
leftKerningGroup = H;
rightKerningGroup = H;
unicode = 0049;
},
{
glyphname = J;
lastChange = "2019-09-10 19:27:05 +0000";
layers = (
{
anchors = (
{
name = top;
position = "{703.953, 737}";
}
);
layerId = "2BED5241-FEE2-452B-8B42-4A46EDD0955E";
paths = (
{
closed = 1;
nodes = (
"608 0 LINE",
"735.751 95 LINE",
"848.953 737 LINE",
"559.953 737 LINE",
"456.978 153 LINE",
"339.978 153 LINE",
"375.42 354 LINE",
"85.42 354 LINE",
"39.751 95 LINE",
"134 0 LINE"
);
}
);
width = 764;
}
);
leftKerningGroup = J;
rightKerningGroup = J;
rightMetricsKey = H;
unicode = 004A;
},
{
glyphname = K;
lastChange = "2019-09-10 19:27:05 +0000";
layers = (
{
layerId = "2BED5241-FEE2-452B-8B42-4A46EDD0955E";
paths = (
{
closed = 1;
nodes = (
"334.9 0 LINE",
"390.434 314.95 LINE",
"500.5 0 LINE",
"825.5 0 LINE",
"652.852 397.451 LINE",
"962.453 737 LINE",
"633.453 737 LINE",
"418.87 476.212 LINE",
"464.853 737 LINE",
"174.953 737 LINE",
"45 0 LINE"
);
}
);
width = 827.5;
}
);
leftKerningGroup = H;
leftMetricsKey = H;
rightKerningGroup = K;
unicode = 004B;
},
{
glyphname = L;
lastChange = "2019-09-10 19:27:05 +0000";
layers = (
{
anchors = (
{
name = botton;
position = "{350.5, 0}";
},
{
name = top;
position = "{333.453, 737}";
}
);
layerId = "2BED5241-FEE2-452B-8B42-4A46EDD0955E";
paths = (
{
closed = 1;
nodes = (
"634.5 0 LINE",
"671.176 208 LINE",
"371.576 208 LINE",
"464.853 737 LINE",
"174.953 737 LINE",
"45 0 LINE"
);
}
);
width = 662.5;
}
);
leftKerningGroup = H;
leftMetricsKey = H;
rightKerningGroup = L;
unicode = 004C;
},
{
glyphname = Lcaron;
lastChange = "2019-09-10 19:27:05 +0000";
layers = (
{
components = (
{
name = L;
}
);
layerId = "2BED5241-FEE2-452B-8B42-4A46EDD0955E";
paths = (
{
closed = 1;
nodes = (
"618.361 555 LINE",
"783.453 737 LINE",
"551.453 737 LINE",
"468.361 555 LINE"
);
}
);
width = 662.5;
}
);
rightKerningGroup = L;
unicode = 013D;
},
{
glyphname = Ldot;
lastChange = "2019-09-10 19:27:05 +0000";
layers = (
{
components = (
{
name = L;
}
);
guideLines = (
{
position = "{344.5, 331.125}";
}
);
layerId = "2BED5241-FEE2-452B-8B42-4A46EDD0955E";
paths = (
{
closed = 1;
nodes = (
"683.886 331.125 LINE",
"716.859 518.125 LINE",
"493.859 518.125 LINE",
"460.886 331.125 LINE"
);
}
);
width = 662.5;
}
);
unicode = 013F;
},
{
glyphname = Lslash;
lastChange = "2019-09-10 19:27:05 +0000";
layers = (
{
components = (
{
name = L;
}
);
layerId = "2BED5241-FEE2-452B-8B42-4A46EDD0955E";
paths = (
{
closed = 1;
nodes = (
"563.705 414 LINE",
"592.911 581.701 LINE",
"46.135 358.898 LINE",
"16.736 191.327 LINE"
);
}
);
width = 662.5;
}
);
rightKerningGroup = L;
rightMetricsKey = L;
unicode = 0141;
},
{
glyphname = M;
lastChange = "2019-09-10 19:27:05 +0000";
layers = (
{
layerId = "2BED5241-FEE2-452B-8B42-4A46EDD0955E";
paths = (
{
closed = 1;
nodes = (
"306.41 0 LINE",
"373.767 382 LINE",
"417.661 46 LINE",
"526.661 46 LINE",
"688.041 380.206 LINE",
"621 0 LINE",
"882.41 0 LINE",
"1012.363 737 LINE",
"731.503 737 LINE",
"530.202 378 LINE",
"455.503 737 LINE",
"174.953 737 LINE",
"45 0 LINE"
);
}
);
width = 927.41;
}
);
leftKerningGroup = M;
leftMetricsKey = H;
rightKerningGroup = M;
rightMetricsKey = H;
unicode = 004D;
},
{
glyphname = N;
lastChange = "2019-09-10 19:27:05 +0000";
layers = (
{
anchors = (
{
name = botton;
position = "{388.55, 0}";
},
{
name = top;
position = "{518.503, 737}";
}
);
layerId = "2BED5241-FEE2-452B-8B42-4A46EDD0955E";
paths = (
{
closed = 1;
nodes = (
"306.41 0 LINE",
"374.849 385.266 LINE",
"473.688 0 LINE",
"730.41 0 LINE",
"860.363 737 LINE",
"598.953 737 LINE",
"533.804 367.52 LINE",
"433.342 737 LINE",
"174.953 737 LINE",
"45 0 LINE"
);
}
);
width = 775.41;
}
);
leftKerningGroup = H;
leftMetricsKey = H;
rightKerningGroup = H;
rightMetricsKey = H;
unicode = 004E;
},
{
glyphname = Eng;
lastChange = "2019-09-10 19:27:05 +0000";
layers = (
{
layerId = "2BED5241-FEE2-452B-8B42-4A46EDD0955E";
paths = (
{
closed = 1;
nodes = (
"306.41 0 LINE",
"374.849 385.266 LINE",
"473.643 0.177 LINE",
"463.949 -57 LINE",
"454.186 -67 LINE",
"372.186 -67 LINE",
"351.027 -187 LINE",
"586.437 -187 LINE",
"714.188 -92 LINE",
"860.363 737 LINE",
"598.953 737 LINE",
"533.804 367.52 LINE",
"433.342 737 LINE",
"174.953 737 LINE",
"45 0 LINE"
);
}
);
width = 775.41;
}
);
leftMetricsKey = N;
rightMetricsKey = N;
unicode = 014A;
},
{
glyphname = O;
lastChange = "2019-09-10 19:27:05 +0000";
layers = (
{
anchors = (
{
name = botton;
position = "{397, 0}";
},
{
name = horn;
position = "{798.731, 645}";
},
{
name = top;
position = "{523.953, 737}";
}
);
layerId = "2BED5241-FEE2-452B-8B42-4A46EDD0955E";
paths = (
{
closed = 1;
nodes = (
"648 0 LINE",
"775.751 95 LINE",
"872.202 642 LINE",
"777.953 737 LINE",
"274.953 737 LINE",
"147.202 642 LINE",
"50.751 95 LINE",
"145 0 LINE"
);
},
{
closed = 1;
nodes = (
"426.975 584 LINE",
"571.975 584 LINE",
"495.978 153 LINE",
"350.978 153 LINE"
);
}
);
width = 793;
}
);
leftKerningGroup = O;
rightKerningGroup = O;
unicode = 004F;
},
{
glyphname = Oslash;
lastChange = "2019-09-10 19:27:05 +0000";
layers = (
{
components = (
{
name = O;
}
);
layerId = "2BED5241-FEE2-452B-8B42-4A46EDD0955E";
paths = (
{
closed = 1;
nodes = (
"331.541 120.569 LINE",
"551.505 395.113 LINE",
"583.831 606.97 LINE",
"381.152 353.999 LINE"
);
}
);
width = 793;
}
);
leftKerningGroup = O;
leftMetricsKey = O;
rightKerningGroup = O;
rightMetricsKey = O;
unicode = 00D8;
},
{
glyphname = OE;
lastChange = "2019-09-10 19:27:05 +0000";
layers = (
{
components = (
{
name = O;
}
);
layerId = "2BED5241-FEE2-452B-8B42-4A46EDD0955E";
paths = (
{
closed = 1;
nodes = (
"1117 0 LINE",
"1153.676 208 LINE",
"795.676 208 LINE",
"809.782 288 LINE",
"1125.782 288 LINE",
"1153.818 447 LINE",
"837.818 447 LINE",
"852.277 529 LINE",
"1210.277 529 LINE",
"1246.953 737 LINE",
"670.699 737 LINE",
"540.746 0 LINE"
);
}
);
width = 1156;
}
);
leftKerningGroup = O;
leftMetricsKey = O;
rightKerningGroup = E;
rightMetricsKey = E;
unicode = 0152;
},
{
glyphname = P;
lastChange = "2019-09-10 19:27:05 +0000";
layers = (
{
layerId = "2BED5241-FEE2-452B-8B42-4A46EDD0955E";
paths = (
{
closed = 1;
nodes = (
"334.9 0 LINE",
"371.047 205 LINE",
"679.647 205 LINE",
"807.222 299 LINE",
"867.702 642 LINE",
"773.453 737 LINE",
"174.953 737 LINE",
"45 0 LINE"
);
},
{
closed = 1;
nodes = (
"437.875 584 LINE",
"578.475 584 LINE",
"538.449 357 LINE",
"397.849 357 LINE"
);
}
);
width = 766.5;
}
);
leftKerningGroup = H;
leftMetricsKey = H;
unicode = 0050;
},
{
glyphname = Thorn;
lastChange = "2019-09-10 19:27:05 +0000";
layers = (
{
layerId = "2BED5241-FEE2-452B-8B42-4A46EDD0955E";
paths = (
{
closed = 1;
nodes = (
"334.9 0 LINE",
"354.825 113 LINE",
"663.425 113 LINE",
"791.176 208 LINE",
"851.832 552 LINE",
"757.584 647 LINE",
"448.984 647 LINE",
"464.853 737 LINE",
"174.953 737 LINE",
"45 0 LINE"
);
},
{
closed = 1;
nodes = (
"425.885 516 LINE",
"566.485 516 LINE",
"518.524 244 LINE",
"377.924 244 LINE"
);
}
);
width = 766.5;
}
);
leftMetricsKey = P;
unicode = 00DE;
},
{
glyphname = Q;
lastChange = "2019-09-10 19:27:05 +0000";
layers = (
{
layerId = "2BED5241-FEE2-452B-8B42-4A46EDD0955E";
paths = (
{
closed = 1;
nodes = (
"489.309 -106 LINE",
"508 0 LINE",
"648 0 LINE",
"775.751 95 LINE",
"872.202 642 LINE",
"777.953 737 LINE",
"274.953 737 LINE",
"147.202 642 LINE",
"50.751 95 LINE",
"145 0 LINE",
"285 0 LINE",
"266.309 -106 LINE"
);
},
{
closed = 1;
nodes = (
"426.975 584 LINE",
"571.975 584 LINE",
"495.978 153 LINE",
"350.978 153 LINE"
);
}
);
width = 793;
}
);
leftKerningGroup = O;
leftMetricsKey = O;
rightKerningGroup = O;
rightMetricsKey = O;
unicode = 0051;
},
{
glyphname = R;
lastChange = "2019-09-10 19:27:05 +0000";
layers = (
{
anchors = (
{
name = botton;
position = "{410.5, 0}";
},
{
name = top;
position = "{516.453, 737}";
}
);
layerId = "2BED5241-FEE2-452B-8B42-4A46EDD0955E";
paths = (
{
closed = 1;
nodes = (
"334.9 0 LINE",
"375.103 228 LINE",
"470.837 228 LINE",
"505.5 0 LINE",
"790.5 0 LINE",
"740.96 267.978 LINE",
"814.277 322 LINE",
"870.702 642 LINE",
"776.453 737 LINE",
"174.953 737 LINE",
"45 0 LINE"
);
},
{
closed = 1;
nodes = (
"437.875 584 LINE",
"581.475 584 LINE",
"545.681 381 LINE",
"402.081 381 LINE"
);
}
);
width = 796.5;
}
);
leftKerningGroup = H;
leftMetricsKey = H;
rightKerningGroup = R;
unicode = 0052;
},
{
glyphname = S;
lastChange = "2019-09-10 19:27:05 +0000";
layers = (
{
anchors = (
{
name = botton;
position = "{368, 0}";
},
{
name = top;
position = "{495.953, 737}";
}
);
layerId = "2BED5241-FEE2-452B-8B42-4A46EDD0955E";
paths = (
{
closed = 1;
nodes = (
"597 0 LINE",
"724.751 95 LINE",
"773.241 370 LINE",
"678.816 464 LINE",
"390.992 465 LINE",
"405.275 546 LINE",
"768.275 546 LINE",
"801.953 737 LINE",
"268.953 737 LINE",
"141.202 642 LINE",
"94.299 376 LINE",
"188.724 282 LINE",
"475.548 281 LINE",
"460.031 193 LINE",
"93.031 193 LINE",
"59 0 LINE"
);
}
);
width = 736;
}
);
leftKerningGroup = S;
rightKerningGroup = S;
unicode = 0053;
},
{
glyphname = Germandbls;
lastChange = "2019-09-10 19:27:05 +0000";
layers = (
{
layerId = "2BED5241-FEE2-452B-8B42-4A46EDD0955E";
paths = (
{
closed = 1;
nodes = (
"348 0 LINE",
"454.854 606 LINE",
"553.854 606 LINE",
"545.567 559 LINE",
"461.937 442 LINE",
"438.838 311 LINE",
"513.838 311 LINE",
"483.099 131 LINE",
"407.099 131 LINE",
"384 0 LINE",
"660 0 LINE",
"787.751 95 LINE",
"821.958 289 LINE",
"709.486 401.457 LINE",
"802.101 528 LINE",
"822.202 642 LINE",
"726.953 737 LINE",
"285.953 737 LINE",
"158.202 642 LINE",
"45 0 LINE"
);
}
);
width = 806.2;
}
);
leftMetricsKey = H;
unicode = 1E9E;
},
{
glyphname = Schwa;
lastChange = "2019-09-10 19:27:05 +0000";
layers = (
{
layerId = "2BED5241-FEE2-452B-8B42-4A46EDD0955E";
paths = (
{
closed = 1;
nodes = (
"648 0 LINE",
"775.751 95 LINE",
"872.202 642 LINE",
"777.953 737 LINE",
"171.953 737 LINE",
"137.217 540 LINE",
"564.217 540 LINE",
"547.994 448 LINE",
"112.994 448 LINE",
"50.751 95 LINE",
"145 0 LINE"
);
},
{
closed = 1;
nodes = (
"374.958 289 LINE",
"519.958 289 LINE",
"495.978 153 LINE",
"350.978 153 LINE"
);
}
);
width = 793;
}
);
leftMetricsKey = O;
rightMetricsKey = O;
unicode = 018F;
},
{
glyphname = T;
lastChange = "2019-09-10 19:27:05 +0000";
layers = (
{
anchors = (
{
name = botton;
position = "{354.5, 0}";
},
{
name = top;
position = "{484.453, 737}";
}
);
layerId = "2BED5241-FEE2-452B-8B42-4A46EDD0955E";
paths = (
{
closed = 1;
nodes = (
"499.95 0 LINE",
"595.167 540 LINE",
"792.217 540 LINE",
"826.953 737 LINE",
"141.953 737 LINE",
"107.217 540 LINE",
"304.267 540 LINE",
"209.05 0 LINE"
);
}
);
width = 709;
}
);
leftKerningGroup = T;
rightKerningGroup = T;
unicode = 0054;
},
{
glyphname = Tbar;
lastChange = "2019-09-10 19:27:05 +0000";
layers = (
{
components = (
{
name = T;
transform = "{1, 0, 0, 1, 0.24, 0}";
}
);
layerId = "2BED5241-FEE2-452B-8B42-4A46EDD0955E";
paths = (
{
closed = 1;
nodes = (
"688.001 234 LINE",
"717.8 403 LINE",
"133.8 403 LINE",
"104.001 234 LINE"
);
}
);
width = 709.24;
}
);
leftKerningGroup = T;
rightKerningGroup = T;
rightMetricsKey = T;
unicode = 0166;
},
{
glyphname = U;
lastChange = "2019-09-10 19:27:05 +0000";
layers = (
{
anchors = (
{
name = botton;
position = "{402, 0}";
},
{
name = horn;
position = "{848.731, 645}";
},
{
name = ogonek;
position = "{478, 0}";
},
{
name = top;
position = "{527.953, 737}";
},
{
name = topright;
position = "{928.953, 737}";
}
);
layerId = "2BED5241-FEE2-452B-8B42-4A46EDD0955E";
paths = (
{
closed = 1;
nodes = (
"647 0 LINE",
"774.751 95 LINE",
"887.953 737 LINE",
"597.953 737 LINE",
"494.978 153 LINE",
"361.978 153 LINE",
"464.953 737 LINE",
"174.953 737 LINE",
"61.751 95 LINE",
"156 0 LINE"
);
}
);
width = 803;
}
);
leftKerningGroup = U;
rightKerningGroup = U;
unicode = 0055;
},
{
glyphname = V;
lastChange = "2019-09-10 19:27:05 +0000";
layers = (
{
layerId = "2BED5241-FEE2-452B-8B42-4A46EDD0955E";
paths = (
{
closed = 1;
nodes = (
"594 0 LINE",
"857.458 496 LINE",
"899.953 737 LINE",
"610.953 737 LINE",
"455.797 186 LINE",
"413.797 186 LINE",
"435.953 737 LINE",
"163.953 737 LINE",
"121.458 496 LINE",
"211 0 LINE"
);
}
);
width = 803;
}
);
leftKerningGroup = V;
rightKerningGroup = V;
unicode = 0056;
},
{
glyphname = W;
lastChange = "2019-09-10 19:27:05 +0000";
layers = (
{
anchors = (
{
name = bottom;
position = "{585, 0}";
},
{
name = top;
position = "{703.953, 737}";
}
);
layerId = "2BED5241-FEE2-452B-8B42-4A46EDD0955E";
paths = (
{
closed = 1;
nodes = (
"505 0 LINE",
"604.152 171 LINE",
"641 0 LINE",
"952 0 LINE",
"1184.932 476 LINE",
"1230.953 737 LINE",
"939.953 737 LINE",
"803.797 186 LINE",
"761.797 186 LINE",
"819.953 737 LINE",
"585.953 737 LINE",
"449.797 186 LINE",
"408.797 186 LINE",
"466.953 737 LINE",
"174.953 737 LINE",
"128.932 476 LINE",
"195 0 LINE"
);
}
);
width = 1145;
}
);
leftKerningGroup = W;
rightKerningGroup = W;
unicode = 0057;
},
{
glyphname = X;
lastChange = "2019-09-10 19:27:05 +0000";
layers = (
{
layerId = "2BED5241-FEE2-452B-8B42-4A46EDD0955E";
paths = (
{
closed = 1;
nodes = (
"339 0 LINE",
"439.782 288 LINE",
"481.782 288 LINE",
"480 0 LINE",
"774 0 LINE",
"814.026 227 LINE",
"720.004 380 LINE",
"866.395 524 LINE",
"903.953 737 LINE",
"609.953 737 LINE",
"511.758 458 LINE",
"469.758 458 LINE",
"468.953 737 LINE",
"174.953 737 LINE",
"137.395 524 LINE",
"234.004 380 LINE",
"85.026 227 LINE",
"45 0 LINE"
);
}
);
width = 818;
}
);
leftKerningGroup = X;
rightKerningGroup = X;
unicode = 0058;
},
{
glyphname = Y;
lastChange = "2019-09-10 19:27:05 +0000";
layers = (
{
anchors = (
{
name = botton;
position = "{376.5, 0}";
},
{
name = top;
position = "{506.453, 737}";
}
);
layerId = "2BED5241-FEE2-452B-8B42-4A46EDD0955E";
paths = (
{
closed = 1;
nodes = (
"521 0 LINE",
"559.792 220 LINE",
"744.301 359 LINE",
"870.953 737 LINE",
"576.953 737 LINE",
"462.712 367 LINE",
"420.712 367 LINE",
"435.953 737 LINE",
"141.953 737 LINE",
"136.301 359 LINE",
"270.968 221 LINE",
"232 0 LINE"
);
}
);
width = 753;
}
);
leftKerningGroup = Y;
rightKerningGroup = Y;
unicode = 0059;
},
{
glyphname = Z;
lastChange = "2019-09-10 19:27:05 +0000";
layers = (
{
anchors = (
{
name = top;
position = "{494.953, 737}";
}
);
layerId = "2BED5241-FEE2-452B-8B42-4A46EDD0955E";
paths = (
{
closed = 1;
nodes = (
"674 0 LINE",
"708.736 197 LINE",
"401.736 197 LINE",
"767.277 529 LINE",
"803.953 737 LINE",
"177.953 737 LINE",
"143.217 540 LINE",
"438.217 540 LINE",
"69.676 208 LINE",
"33 0 LINE"
);
}
);
width = 707;
}
);
leftKerningGroup = Z;
rightKerningGroup = Z;
unicode = 005A;
},
{
glyphname = a;
lastChange = "2019-09-10 19:27:05 +0000";
layers = (
{
anchors = (
{
name = botton;
position = "{334, 0}";
},
{
name = ogonek;
position = "{467, 0}";
},
{
name = top;
position = "{423.219, 523}";
}
);
layerId = "2BED5241-FEE2-452B-8B42-4A46EDD0955E";
paths = (
{
closed = 1;
nodes = (
"289 0 LINE",
"357.997 62.366 LINE",
"347 0 LINE",
"615 0 LINE",
"690.468 428 LINE",
"596.219 523 LINE",
"167.219 523 LINE",
"142.357 382 LINE",
"414.357 382 LINE",
"404.483 326 LINE",
"164.483 326 LINE",
"49.91 215 LINE",
"31.572 111 LINE",
"107 0 LINE"
);
},
{
closed = 1;
nodes = (
"297.671 242 LINE",
"389.671 242 LINE",
"376.447 167 LINE",
"305.867 107 LINE",
"273.867 107 LINE"
);
}
);
width = 654;
}
);
leftKerningGroup = a;
rightKerningGroup = n;
unicode = 0061;
},
{
glyphname = ae;
lastChange = "2019-09-10 19:27:05 +0000";
layers = (
{
anchors = (
{
name = top;
position = "{548.912, 523}";
}
);
layerId = "2BED5241-FEE2-452B-8B42-4A46EDD0955E";
paths = (
{
closed = 1;
nodes = (
"371 0 LINE",
"460.1 80.537 LINE",
"540 0 LINE",
"934 0 LINE",
"959.92 147 LINE",
"636.92 147 LINE",
"648.91 215 LINE",
"976.91 215 LINE",
"1014.468 428 LINE",
"920.219 523 LINE",
"167.219 523 LINE",
"142.357 382 LINE",
"414.357 382 LINE",
"403.425 320 LINE",
"163.425 320 LINE",
"48.852 209 LINE",
"31.572 111 LINE",
"107 0 LINE"
);
},
{
closed = 1;
nodes = (
"292.91 215 LINE",
"384.91 215 LINE",
"376.447 167 LINE",
"305.867 107 LINE",
"273.867 107 LINE"
);
},
{
closed = 1;
nodes = (
"686.644 429 LINE",
"778.644 429 LINE",
"759.425 320 LINE",
"667.425 320 LINE"
);
}
);
width = 973;
}
);
leftKerningGroup = a;
leftMetricsKey = a;
rightKerningGroup = e;
rightMetricsKey = e;
unicode = 00E6;
},
{
glyphname = b;
lastChange = "2019-09-10 19:27:05 +0000";
layers = (
{
layerId = "2BED5241-FEE2-452B-8B42-4A46EDD0955E";
paths = (
{
closed = 1;
nodes = (
"308 0 LINE",
"314.271 35.564 LINE",
"359.8 0 LINE",
"560.6 0 LINE",
"688.381 94.6 LINE",
"747.15 427.9 LINE",
"652.731 522.5 LINE",
"459.631 522.5 LINE",
"392.617 479.885 LINE",
"437.953 737 LINE",
"168.953 737 LINE",
"39 0 LINE"
);
},
{
closed = 1;
nodes = (
"330.644 128.423 LINE",
"375.265 381.477 LINE",
"442.562 425.7 LINE",
"478.862 425.7 LINE",
"419.511 89.1 LINE",
"387.611 89.1 LINE"
);
}
);
width = 705.68;
}
);
leftKerningGroup = _part.b;
leftMetricsKey = n;
rightKerningGroup = o;
rightMetricsKey = o;
unicode = 0062;
},
{
glyphname = c;
lastChange = "2019-09-10 19:27:05 +0000";
layers = (
{
anchors = (
{
name = botton;
position = "{359, 0}";
},
{
name = top;
position = "{439.219, 523}";
}
);
layerId = "2BED5241-FEE2-452B-8B42-4A46EDD0955E";
paths = (
{
closed = 1;
nodes = (
"639 0 LINE",
"664.92 147 LINE",
"327.92 147 LINE",
"377.644 429 LINE",
"469.644 429 LINE",
"446.193 296 LINE",
"693.193 296 LINE",
"716.468 428 LINE",
"622.219 523 LINE",
"237.219 523 LINE",
"109.468 428 LINE",
"50.751 95 LINE",
"145 0 LINE"
);
}
);
width = 675;
}
);
leftKerningGroup = o;
leftMetricsKey = o;
rightKerningGroup = e;
rightMetricsKey = o;
unicode = 0063;
},
{
glyphname = d;
lastChange = "2019-09-10 19:27:05 +0000";
layers = (
{
layerId = "2BED5241-FEE2-452B-8B42-4A46EDD0955E";
paths = (
{
closed = 1;
nodes = (
"345.97 0 LINE",
"405.162 36.251 LINE",
"398.77 0 LINE",
"667.77 0 LINE",
"797.723 737 LINE",
"528.723 737 LINE",
"483.26 479.169 LINE",
"430.401 522.5 LINE",
"237.301 522.5 LINE",
"109.52 427.9 LINE",
"50.751 94.6 LINE",
"145.17 0 LINE"
);
},
{
closed = 1;
nodes = (
"377.032 425.7 LINE",
"413.332 425.7 LINE",
"465.904 380.734 LINE",
"421.523 129.038 LINE",
"349.581 89.1 LINE",
"317.681 89.1 LINE"
);
}
);
width = 706.77;
}
);
leftKerningGroup = o;
leftMetricsKey = o;
rightKerningGroup = l;
unicode = 0064;
},
{
glyphname = eth;
lastChange = "2019-09-10 19:27:05 +0000";
layers = (
{
background = {
paths = (
{
closed = 1;
nodes = (
"547 0 LINE",
"674.751 95 LINE",
"727.629 395.931 LINE",
"589.966 655.413 LINE",
"650.591 693.56 LINE",
"602.931 780.56 LINE",
"543.509 743.219 LINE",
"521.637 784.56 LINE",
"335.139 670 LINE",
"358.139 626.515 LINE",
"300.033 590 LINE",
"346.516 502 LINE",
"404.652 538.58 LINE",
"435.637 480 LINE",
"229.461 479 LINE",
"101.71 384 LINE",
"50.751 95 LINE",
"145 0 LINE"
);
}
);
};
layerId = "2BED5241-FEE2-452B-8B42-4A46EDD0955E";
paths = (
{
closed = 1;
nodes = (
"552 0 LINE",
"679.751 95 LINE",
"731.517 389.127 LINE",
"589.966 655.413 LINE",
"650.591 693.56 LINE",
"602.931 780.56 LINE",
"543.509 743.219 LINE",
"521.637 784.56 LINE",
"335.139 670 LINE",
"358.139 626.515 LINE",
"300.033 590 LINE",
"346.516 502 LINE",
"404.652 538.58 LINE",
"435.637 480 LINE",
"229.461 479 LINE",
"101.71 384 LINE",
"50.751 95 LINE",
"145 0 LINE"
);
},
{
closed = 1;
nodes = (
"370.886 385 LINE",
"462.886 385 LINE",
"411.575 94 LINE",
"319.575 94 LINE"
);
}
);
width = 697.52;
}
);
leftKerningGroup = o;
leftMetricsKey = o;
rightKerningGroup = o;
unicode = 00F0;
},
{
glyphname = dcaron;
lastChange = "2019-09-10 19:27:05 +0000";
layers = (
{
components = (
{
name = d;
}
);
layerId = "2BED5241-FEE2-452B-8B42-4A46EDD0955E";
paths = (
{
closed = 1;
nodes = (
"937.861 555 LINE",
"1102.953 737 LINE",
"875.953 737 LINE",
"792.861 555 LINE"
);
}
);
width = 706.70001;
}
);
leftKerningGroup = o;
rightKerningGroup = l;
unicode = 010F;
},
{
glyphname = dcroat;
lastChange = "2019-09-10 19:27:05 +0000";
layers = (
{
components = (
{
name = d;
}
);
layerId = "2BED5241-FEE2-452B-8B42-4A46EDD0955E";
paths = (
{
closed = 1;
nodes = (
"821.427 548 LINE",
"845.76 686 LINE",
"416.76 686 LINE",
"392.427 548 LINE"
);
}
);
width = 706.70001;
}
);
leftKerningGroup = o;
rightKerningGroup = l;
unicode = 0111;
},
{
glyphname = e;
lastChange = "2019-09-10 19:27:05 +0000";
layers = (
{
anchors = (
{
name = botton;
position = "{329, 0}";
},
{
name = ogonek;
position = "{626, 0}";
},
{
name = top;
position = "{421.219, 523}";
}
);
layerId = "2BED5241-FEE2-452B-8B42-4A46EDD0955E";
paths = (
{
closed = 1;
nodes = (
"626 0 LINE",
"651.92 147 LINE",
"328.92 147 LINE",
"340.029 210 LINE",
"668.029 210 LINE",
"706.468 428 LINE",
"612.219 523 LINE",
"237.219 523 LINE",
"109.468 428 LINE",
"50.751 95 LINE",
"145 0 LINE"
);
},
{
closed = 1;
nodes = (
"378.644 429 LINE",
"470.644 429 LINE",
"449.485 309 LINE",
"357.485 309 LINE"
);
}
);
width = 665;
}
);
leftKerningGroup = o;
leftMetricsKey = o;
rightKerningGroup = e;
unicode = 0065;
},
{
glyphname = f;
lastChange = "2019-09-10 19:27:05 +0000";
layers = (
{
layerId = "2BED5241-FEE2-452B-8B42-4A46EDD0955E";
paths = (
{
closed = 1;
nodes = (
"317 0 LINE",
"388.236 404 LINE",
"479.236 404 LINE",
"500.219 523 LINE",
"409.219 523 LINE",
"425.793 617 LINE",
"540.794 617 LINE",
"561.953 737 LINE",
"284.953 737 LINE",
"157.202 642 LINE",
"136.219 523 LINE",
"93.219 523 LINE",
"72.236 404 LINE",
"115.236 404 LINE",
"44 0 LINE"
);
}
);
width = 427;
}
);
leftKerningGroup = f;
rightKerningGroup = f;
unicode = 0066;
},
{
glyphname = g;
lastChange = "2019-09-10 19:27:05 +0000";
layers = (
{
anchors = (
{
name = top;
position = "{428.843, 522}";
}
);
layerId = "2BED5241-FEE2-452B-8B42-4A46EDD0955E";
paths = (
{
closed = 1;
nodes = (
"483.827 -187 LINE",
"630.926 -56 LINE",
"732.843 522 LINE",
"489.843 522 LINE",
"482.404 479.814 LINE",
"430.331 522.5 LINE",
"237.231 522.5 LINE",
"109.45 427.9 LINE",
"50.681 94.6 LINE",
"145.1 0 LINE",
"345.9 0 LINE",
"404.083 35.633 LINE",
"394.979 -16 LINE",
"354.455 -53 LINE",
"57.455 -53 LINE",
"33.827 -187 LINE"
);
},
{
closed = 1;
nodes = (
"376.962 425.7 LINE",
"413.262 425.7 LINE",
"465.052 381.403 LINE",
"420.455 128.485 LINE",
"349.511 89.1 LINE",
"317.611 89.1 LINE"
);
}
);
width = 679.84;
}
);
leftKerningGroup = o;
rightKerningGroup = u;
unicode = 0067;
},
{
glyphname = h;
lastChange = "2019-09-10 19:27:05 +0000";
layers = (
{
anchors = (
{
name = top;
position = "{437.853, 737}";
}
);
layerId = "2BED5241-FEE2-452B-8B42-4A46EDD0955E";
paths = (
{
closed = 1;
nodes = (
"308 0 LINE",
"375.239 381.333 LINE",
"445.662 425.7 LINE",
"477.562 425.7 LINE",
"402.5 0 LINE",
"670.4 0 LINE",
"745.85 427.9 LINE",
"651.431 522.5 LINE",
"460.531 522.5 LINE",
"392.75 480.639 LINE",
"437.953 737 LINE",
"168.953 737 LINE",
"39 0 LINE"
);
}
);
width = 704.4;
}
);
leftKerningGroup = _part.l;
leftMetricsKey = n;
rightKerningGroup = n;
rightMetricsKey = n;
unicode = 0068;
},
{
glyphname = hbar;
lastChange = "2019-09-10 19:27:05 +0000";
layers = (
{
anchors = (
{
name = top;
position = "{437.853, 737}";
}
);
layerId = "2BED5241-FEE2-452B-8B42-4A46EDD0955E";
paths = (
{
closed = 1;
nodes = (
"308 0 LINE",
"375.239 381.333 LINE",
"445.662 425.7 LINE",
"477.562 425.7 LINE",
"402.5 0 LINE",
"670.4 0 LINE",
"745.85 427.9 LINE",
"651.431 522.5 LINE",
"460.531 522.5 LINE",
"392.75 480.639 LINE",
"405.156 551 LINE",
"521.156 551 LINE",
"545.489 689 LINE",
"429.489 689 LINE",
"437.953 737 LINE",
"168.953 737 LINE",
"160.489 689 LINE",
"116.489 689 LINE",
"92.156 551 LINE",
"136.156 551 LINE",
"39 0 LINE"
);
}
);
width = 704.4;
}
);
leftKerningGroup = _part.l;
rightKerningGroup = n;
unicode = 0127;
},
{
glyphname = idotless;
lastChange = "2019-09-10 19:27:05 +0000";
layers = (
{
anchors = (
{
name = botton;
position = "{178.9, 0}";
},
{
name = ogonek;
position = "{311.9, 0}";
},
{
name = top;
position = "{268.119, 523}";
}
);
layerId = "2BED5241-FEE2-452B-8B42-4A46EDD0955E";
paths = (
{
closed = 1;
nodes = (
"311.9 0 LINE",
"404.031 522.5 LINE",
"131.131 522.5 LINE",
"39 0 LINE"
);
}
);
width = 351.03;
}
);
leftKerningGroup = i;
leftMetricsKey = n;
rightKerningGroup = i;
unicode = 0131;
},
{
glyphname = jdotless;
lastChange = "2019-09-10 19:27:05 +0000";
layers = (
{
anchors = (
{
name = top;
position = "{270.219, 523}";
}
);
layerId = "2BED5241-FEE2-452B-8B42-4A46EDD0955E";
paths = (
{
closed = 1;
nodes = (
"171.027 -187 LINE",
"298.778 -92 LINE",
"406.219 523 LINE",
"133.219 523 LINE",
"29.186 -67 LINE",
"-60.814 -67 LINE",
"-81.973 -187 LINE"
);
}
);
width = 354.22;
}
);
unicode = 0237;
},
{
glyphname = k;
lastChange = "2019-09-30 12:55:12 +0000";
layers = (
{
layerId = "2BED5241-FEE2-452B-8B42-4A46EDD0955E";
paths = (
{
closed = 1;
nodes = (
"308 0 LINE",
"331 130.439 LINE",
"376.372 169.072 LINE",
"438.9 0 LINE",
"693.703 0 LINE",
"544.504 312.228 LINE",
"790.873 522 LINE",
"519.211 522 LINE",
"379.647 406.329 LINE",
"437.953 737 LINE",
"168.953 737 LINE",
"39 0 LINE"
);
}
);
width = 716.9;
}
);
leftKerningGroup = h;
leftMetricsKey = n;
rightKerningGroup = k;
unicode = 006B;
},
{
glyphname = kgreenlandic;
lastChange = "2019-09-30 12:55:23 +0000";
layers = (
{
guideLines = (
{
position = "{400.219, 523}";
}
);
layerId = "2BED5241-FEE2-452B-8B42-4A46EDD0955E";
paths = (
{
closed = 1;
nodes = (
"308 0 LINE",
"331 130.439 LINE",
"376.372 169.072 LINE",
"438.9 0 LINE",
"693.703 0 LINE",
"544.504 312.228 LINE",
"790.873 522 LINE",
"519.211 522 LINE",
"379.647 406.329 LINE",
"400.219 523 LINE",
"131.219 523 LINE",
"39 0 LINE"
);
}
);
width = 716.9;
}
);
leftKerningGroup = h;
leftMetricsKey = n;
rightKerningGroup = k;
unicode = 0138;
},
{
glyphname = l;
lastChange = "2019-09-10 19:27:05 +0000";
layers = (
{
anchors = (
{
name = botton;
position = "{174.9, 0}";
},
{
name = top;
position = "{304.853, 737}";
}
);
layerId = "2BED5241-FEE2-452B-8B42-4A46EDD0955E";
paths = (
{
closed = 1;
nodes = (
"313 0 LINE",
"442.953 737 LINE",
"168.953 737 LINE",
"39 0 LINE"
);
}
);
width = 352;
}
);
leftKerningGroup = l;
leftMetricsKey = n;
rightKerningGroup = _part.l;
rightMetricsKey = d;
unicode = 006C;
},
{
glyphname = lcaron;
lastChange = "2019-09-10 19:27:05 +0000";
layers = (
{
components = (
{
name = l;
}
);
layerId = "2BED5241-FEE2-452B-8B42-4A46EDD0955E";
paths = (
{
closed = 1;
nodes = (
"583.761 555 LINE",
"748.853 737 LINE",
"521.853 737 LINE",
"438.761 555 LINE"
);
}
);
width = 352;
}
);
leftKerningGroup = l;
rightKerningGroup = _part.l;
unicode = 013E;
},
{
glyphname = ldot;
lastChange = "2019-09-10 19:27:05 +0000";
layers = (
{
components = (
{
name = l;
}
);
guideLines = (
{
position = "{379, 263}";
},
{
position = "{423.75, 305.875}";
}
);
layerId = "2BED5241-FEE2-452B-8B42-4A46EDD0955E";
paths = (
{
closed = 1;
nodes = (
"652.934 305.875 LINE",
"685.907 492.875 LINE",
"457.907 492.875 LINE",
"424.934 305.875 LINE"
);
}
);
width = 619;
}
);
leftKerningGroup = l;
rightKerningGroup = _part.l;
unicode = 0140;
},
{
glyphname = lslash;
lastChange = "2019-09-10 19:27:05 +0000";
layers = (
{
components = (
{
name = l;
transform = "{1, 0, 0, 1, 13.81, 0}";
}
);
layerId = "2BED5241-FEE2-452B-8B42-4A46EDD0955E";
paths = (
{
closed = 1;
nodes = (
"448.855 367.646 LINE",
"476.538 524.646 LINE",
"48.033 351.646 LINE",
"19.997 192.646 LINE"
);
}
);
width = 371.54;
}
);
leftKerningGroup = l;
rightKerningGroup = _part.l;
unicode = 0142;
},
{
glyphname = m;
lastChange = "2019-09-10 19:27:05 +0000";
layers = (
{
layerId = "2BED5241-FEE2-452B-8B42-4A46EDD0955E";
paths = (
{
closed = 1;
nodes = (
"306.9 0 LINE",
"373.627 378.427 LINE",
"448.662 425.7 LINE",
"480.562 425.7 LINE",
"405.5 0 LINE",
"668.4 0 LINE",
"735.689 381.617 LINE",
"805.662 425.7 LINE",
"837.562 425.7 LINE",
"762.5 0 LINE",
"1030.4 0 LINE",
"1105.85 427.9 LINE",
"1011.431 522.5 LINE",
"820.531 522.5 LINE",
"714.68 457.127 LINE",
"649.431 522.5 LINE",
"463.531 522.5 LINE",
"391.149 477.797 LINE",
"399.031 522.5 LINE",
"131.131 522.5 LINE",
"39 0 LINE"
);
}
);
width = 1064.4;
}
);
leftKerningGroup = n;
leftMetricsKey = n;
rightKerningGroup = n;
rightMetricsKey = n;
unicode = 006D;
},
{
glyphname = n;
lastChange = "2019-09-10 19:27:05 +0000";
layers = (
{
anchors = (
{
name = botton;
position = "{357.9, 0}";
},
{
name = top;
position = "{446.943, 522}";
}
);
layerId = "2BED5241-FEE2-452B-8B42-4A46EDD0955E";
paths = (
{
closed = 1;
nodes = (
"306.9 0 LINE",
"373.627 378.427 LINE",
"448.662 425.7 LINE",
"480.562 425.7 LINE",
"405.5 0 LINE",
"673.4 0 LINE",
"748.85 427.9 LINE",
"654.431 522.5 LINE",
"463.531 522.5 LINE",
"391.149 477.797 LINE",
"399.031 522.5 LINE",
"131.131 522.5 LINE",
"39 0 LINE"
);
}
);
width = 707.4;
}
);
leftKerningGroup = n;
rightKerningGroup = n;
unicode = 006E;
},
{
glyphname = eng;
lastChange = "2019-09-10 19:27:05 +0000";
layers = (
{
anchors = (
{
name = top;
position = "{268.131, 522.5}";
}
);
layerId = "2BED5241-FEE2-452B-8B42-4A46EDD0955E";
paths = (
{
closed = 1;
nodes = (
"529.807 -187 LINE",
"657.425 -92.006 LINE",
"749.25 427.9 LINE",
"654.831 522.5 LINE",
"463.931 522.5 LINE",
"391.1 477.52 LINE",
"399.031 522.5 LINE",
"131.131 522.5 LINE",
"39 0 LINE",
"306.9 0 LINE",
"373.577 378.144 LINE",
"449.062 425.7 LINE",
"480.962 425.7 LINE",
"395.729 -57 LINE",
"383.966 -67 LINE",
"303.966 -67 LINE",
"282.807 -187 LINE"
);
}
);
width = 707.8;
}
);
leftKerningGroup = n;
leftMetricsKey = n;
rightKerningGroup = n;
rightMetricsKey = n;
unicode = 014B;
},
{
glyphname = o;
lastChange = "2019-09-10 19:27:05 +0000";
layers = (
{
anchors = (
{
name = botton;
position = "{349, 0}";
},
{
name = horn;
position = "{662.173, 432}";
},
{
name = ogonek;
position = "{552, 0}";
},
{
name = top;
position = "{441.219, 523}";
}
);
layerId = "2BED5241-FEE2-452B-8B42-4A46EDD0955E";
paths = (
{
closed = 1;
nodes = (
"552 0 LINE",
"679.751 95 LINE",
"738.468 428 LINE",
"644.219 523 LINE",
"237.219 523 LINE",
"109.468 428 LINE",
"50.751 95 LINE",
"145 0 LINE"
);
},
{
closed = 1;
nodes = (
"378.644 429 LINE",
"470.644 429 LINE",
"411.575 94 LINE",
"319.575 94 LINE"
);
}
);
width = 697;
}
);
leftKerningGroup = o;
rightKerningGroup = o;
unicode = 006F;
},
{
glyphname = odieresismacron;
lastChange = "2019-09-10 19:27:05 +0000";
layers = (
{
components = (
{
locked = 1;
name = macroncomb;
transform = "{1, 0, 0, 1, 81.478, -24.056}";
}
);
guideLines = (
{
angle = 259.9999;
position = "{785.875, 733}";
},
{
angle = 259.9999;
position = "{171.875, 733}";
}
);
layerId = "2BED5241-FEE2-452B-8B42-4A46EDD0955E";
paths = (
{
closed = 1;
nodes = (
"552 0 LINE",
"679.751 95 LINE",
"738.468 428 LINE",
"644.219 523 LINE",
"237.219 523 LINE",
"109.468 428 LINE",
"50.751 95 LINE",
"145 0 LINE"
);
},
{
closed = 1;
nodes = (
"378.644 429 LINE",
"470.644 429 LINE",
"411.575 94 LINE",
"319.575 94 LINE"
);
},
{
closed = 1;
nodes = (
"758.015 575 LINE",
"785.875 733 LINE",
"512.875 733 LINE",
"485.015 575 LINE"
);
},
{
closed = 1;
nodes = (
"417.015 575 LINE",
"444.875 733 LINE",
"171.875 733 LINE",
"144.015 575 LINE"
);
}
);
width = 697;
}
);
leftKerningGroup = o;
rightKerningGroup = o;
unicode = 022B;
},
{
glyphname = odotaccentmacron;
lastChange = "2019-09-10 19:27:05 +0000";
layers = (
{
components = (
{
name = o;
},
{
alignment = -1;
name = dotaccentcomb;
transform = "{1, 0, 0, 1, 269.89, 0}";
}
);
guideLines = (
{
angle = 259.9999;
position = "{754.661, 724}";
},
{
angle = 259.9999;
position = "{198.661, 724}";
}
);
layerId = "2BED5241-FEE2-452B-8B42-4A46EDD0955E";
paths = (
{
closed = 1;
nodes = (
"761.82 765.166 LINE",
"788.093 914.166 LINE",
"232.093 914.166 LINE",
"205.82 765.166 LINE"
);
}
);
width = 697;
}
);
leftKerningGroup = o;
rightKerningGroup = o;
unicode = 0231;
},
{
glyphname = oslash;
lastChange = "2019-09-10 19:27:05 +0000";
layers = (
{
anchors = (
{
name = top;
position = "{441.219, 523}";
}
);
layerId = "2BED5241-FEE2-452B-8B42-4A46EDD0955E";
paths = (
{
closed = 1;
nodes = (
"322.947 113.123 LINE",
"440.92 260.426 LINE",
"411.575 94 LINE",
"319.575 94 LINE"
);
},
{
closed = 1;
nodes = (
"378.644 429 LINE",
"470.644 429 LINE",
"467.531 411.343 LINE",
"349.577 264.151 LINE"
);
},
{
closed = 1;
nodes = (
"552 0 LINE",
"679.751 95 LINE",
"738.468 428 LINE",
"644.219 523 LINE",
"237.219 523 LINE",
"109.468 428 LINE",
"50.751 95 LINE",
"145 0 LINE"
);
}
);
width = 697;
}
);
leftKerningGroup = o;
leftMetricsKey = o;
rightKerningGroup = o;
rightMetricsKey = o;
unicode = 00F8;
},
{
glyphname = oe;
lastChange = "2019-09-10 19:27:05 +0000";
layers = (
{
layerId = "2BED5241-FEE2-452B-8B42-4A46EDD0955E";
paths = (
{
closed = 1;
nodes = (
"974 0 LINE",
"999.92 147 LINE",
"683.92 147 LINE",
"695.029 210 LINE",
"1017.029 210 LINE",
"1061.463 462 LINE",
"1002.219 523 LINE",
"237.219 523 LINE",
"109.468 428 LINE",
"50.751 95 LINE",
"145 0 LINE"
);
},
{
closed = 1;
nodes = (
"378.644 429 LINE",
"470.644 429 LINE",
"411.575 94 LINE",
"319.575 94 LINE"
);
},
{
closed = 1;
nodes = (
"733.644 429 LINE",
"820.644 429 LINE",
"799.485 309 LINE",
"712.485 309 LINE"
);
}
);
width = 1019.99;
}
);
leftKerningGroup = o;
leftMetricsKey = o;
rightKerningGroup = e;
rightMetricsKey = e;
unicode = 0153;
},
{
glyphname = p;
lastChange = "2019-09-10 19:27:05 +0000";
layers = (
{
layerId = "2BED5241-FEE2-452B-8B42-4A46EDD0955E";
paths = (
{
closed = 1;
nodes = (
"274.997 -187 LINE",
"314.229 35.496 LINE",
"359.67 0 LINE",
"560.47 0 LINE",
"688.251 94.6 LINE",
"747.02 427.9 LINE",
"652.601 522.5 LINE",
"459.501 522.5 LINE",
"392.599 479.957 LINE",
"400.101 522.5 LINE",
"131.101 522.5 LINE",
"5.997 -187 LINE"
);
},
{
closed = 1;
nodes = (
"330.604 128.362 LINE",
"375.248 381.551 LINE",
"442.432 425.7 LINE",
"478.732 425.7 LINE",
"419.381 89.1 LINE",
"387.481 89.1 LINE"
);
}
);
width = 705.55;
}
);
leftKerningGroup = n;
rightKerningGroup = o;
rightMetricsKey = o;
unicode = 0070;
},
{
glyphname = thorn;
lastChange = "2019-09-10 19:27:05 +0000";
layers = (
{
layerId = "2BED5241-FEE2-452B-8B42-4A46EDD0955E";
paths = (
{
closed = 1;
nodes = (
"274.997 -187 LINE",
"314.229 35.496 LINE",
"359.67 0 LINE",
"560.47 0 LINE",
"688.251 94.6 LINE",
"747.02 427.9 LINE",
"652.601 522.5 LINE",
"459.501 522.5 LINE",
"392.599 479.957 LINE",
"437.923 737 LINE",
"168.923 737 LINE",
"5.997 -187 LINE"
);
},
{
closed = 1;
nodes = (
"330.604 128.362 LINE",
"375.248 381.551 LINE",
"442.432 425.7 LINE",
"478.732 425.7 LINE",
"419.381 89.1 LINE",
"387.481 89.1 LINE"
);
}
);
width = 705.55;
}
);
leftKerningGroup = n;
leftMetricsKey = p;
rightKerningGroup = o;
rightMetricsKey = p;
unicode = 00FE;
},
{
glyphname = q;
lastChange = "2019-09-10 19:27:05 +0000";
layers = (
{
layerId = "2BED5241-FEE2-452B-8B42-4A46EDD0955E";
paths = (
{
closed = 1;
nodes = (
"633.697 -187 LINE",
"758.801 522.5 LINE",
"489.801 522.5 LINE",
"482.299 479.957 LINE",
"430.401 522.5 LINE",
"237.301 522.5 LINE",
"109.52 427.9 LINE",
"50.751 94.6 LINE",
"145.17 0 LINE",
"345.97 0 LINE",
"403.929 35.496 LINE",
"364.697 -187 LINE"
);
},
{
closed = 1;
nodes = (
"377.032 425.7 LINE",
"413.332 425.7 LINE",
"464.948 381.551 LINE",
"420.304 128.362 LINE",
"349.581 89.1 LINE",
"317.681 89.1 LINE"
);
}
);
width = 705.8;
}
);
leftKerningGroup = o;
leftMetricsKey = o;
rightKerningGroup = u;
unicode = 0071;
},
{
glyphname = r;
lastChange = "2019-09-10 19:27:05 +0000";
layers = (
{
anchors = (
{
name = botton;
position = "{176, 0}";
},
{
name = top;
position = "{336.331, 522.5}";
}
);
layerId = "2BED5241-FEE2-452B-8B42-4A46EDD0955E";
paths = (
{
closed = 1;
nodes = (
"311.9 0 LINE",
"369.312 325.6 LINE",
"537.612 325.6 LINE",
"572.331 522.5 LINE",
"474.431 522.5 LINE",
"392.652 457.967 LINE",
"404.031 522.5 LINE",
"131.131 522.5 LINE",
"39 0 LINE"
);
}
);
width = 486.2;
}
);
leftKerningGroup = n;
leftMetricsKey = n;
rightKerningGroup = r;
unicode = 0072;
},
{
glyphname = s;
lastChange = "2019-09-10 19:27:05 +0000";
layers = (
{
anchors = (
{
name = botton;
position = "{309, 0}";
},
{
name = top;
position = "{421.219, 523}";
}
);
layerId = "2BED5241-FEE2-452B-8B42-4A46EDD0955E";
paths = (
{
closed = 1;
nodes = (
"507 0 LINE",
"634.751 95 LINE",
"658.908 232 LINE",
"564.659 327 LINE",
"362.659 327 LINE",
"372.533 383 LINE",
"642.533 383 LINE",
"667.219 523 LINE",
"231.219 523 LINE",
"103.468 428 LINE",
"79.135 290 LINE",
"173.56 196 LINE",
"392.56 196 LINE",
"382.686 140 LINE",
"75.686 140 LINE",
"51 0 LINE"
);
}
);
width = 646;
}
);
leftKerningGroup = o;
rightKerningGroup = o;
unicode = 0073;
},
{
glyphname = germandbls;
lastChange = "2019-09-10 19:27:05 +0000";
layers = (
{
layerId = "2BED5241-FEE2-452B-8B42-4A46EDD0955E";
paths = (
{
closed = 1;
nodes = (
"348 0 LINE",
"454.854 606 LINE",
"553.854 606 LINE",
"524.937 442 LINE",
"461.937 442 LINE",
"438.838 311 LINE",
"513.838 311 LINE",
"483.099 131 LINE",
"407.099 131 LINE",
"384 0 LINE",
"661 0 LINE",
"788.751 95 LINE",
"822.958 289 LINE",
"713.916 398.027 LINE",
"790.052 454 LINE",
"823.202 642 LINE",
"727.953 737 LINE",
"285.953 737 LINE",
"158.202 642 LINE",
"45 0 LINE"
);
}
);
width = 806.2;
}
);
leftMetricsKey = H;
unicode = 00DF;
},
{
glyphname = t;
lastChange = "2019-09-10 19:27:05 +0000";
layers = (
{
anchors = (
{
name = botton;
position = "{267, 0}";
},
{
name = top;
position = "{603.917, 578}";
}
);
layerId = "2BED5241-FEE2-452B-8B42-4A46EDD0955E";
paths = (
{
closed = 1;
nodes = (
"407 0 LINE",
"428.159 120 LINE",
"338.16 120 LINE",
"388.236 404 LINE",
"462.236 404 LINE",
"483.219 523 LINE",
"409.219 523 LINE",
"439.547 695 LINE",
"263.547 695 LINE",
"144.034 523 LINE",
"104.219 523 LINE",
"83.236 404 LINE",
"114.236 404 LINE",
"59.751 95 LINE",
"155 0 LINE"
);
}
);
width = 419;
}
);
leftKerningGroup = t;
rightKerningGroup = t;
unicode = 0074;
},
{
glyphname = tbar;
lastChange = "2019-09-10 19:27:05 +0000";
layers = (
{
layerId = "2BED5241-FEE2-452B-8B42-4A46EDD0955E";
paths = (
{
closed = 1;
nodes = (
"407.06 0 LINE",
"428.219 120 LINE",
"338.22 120 LINE",
"358.497 235 LINE",
"433.497 235 LINE",
"452.505 342.8 LINE",
"377.505 342.8 LINE",
"388.296 404 LINE",
"462.296 404 LINE",
"483.279 523 LINE",
"409.279 523 LINE",
"439.607 695 LINE",
"263.607 695 LINE",
"144.094 523 LINE",
"104.279 523 LINE",
"83.296 404 LINE",
"114.296 404 LINE",
"103.505 342.8 LINE",
"74.005 342.8 LINE",
"54.997 235 LINE",
"84.497 235 LINE",
"59.811 95 LINE",
"155.06 0 LINE"
);
}
);
width = 419.06;
}
);
leftKerningGroup = t;
rightKerningGroup = t;
rightMetricsKey = t;
unicode = 0167;
},
{
glyphname = tcaron;
lastChange = "2019-09-10 19:27:05 +0000";
layers = (
{
components = (
{
name = t;
}
);
layerId = "2BED5241-FEE2-452B-8B42-4A46EDD0955E";
paths = (
{
closed = 1;
nodes = (
"586.826 554.998 LINE",
"751.918 736.998 LINE",
"524.918 736.998 LINE",
"441.826 554.998 LINE"
);
}
);
width = 419;
}
);
leftKerningGroup = t;
rightKerningGroup = t;
unicode = 0165;
},
{
glyphname = u;
lastChange = "2019-09-10 19:27:05 +0000";
layers = (
{
anchors = (
{
name = bottom;
position = "{531.3, 0}";
},
{
name = botton;
position = "{350.4, 0}";
},
{
name = horn;
position = "{715.326, 432.3}";
},
{
name = ogonek;
position = "{663.3, 0}";
},
{
name = top;
position = "{439.331, 522.5}";
},
{
name = topright;
position = "{764.731, 522.5}";
}
);
layerId = "2BED5241-FEE2-452B-8B42-4A46EDD0955E";
paths = (
{
closed = 1;
nodes = (
"330.5 0 LINE",
"403.331 44.98 LINE",
"395.4 0 LINE",
"663.3 0 LINE",
"755.431 522.5 LINE",
"487.531 522.5 LINE",
"420.559 142.686 LINE",
"350.868 96.8 LINE",
"318.968 96.8 LINE",
"394.031 522.5 LINE",
"126.131 522.5 LINE",
"50.681 94.6 LINE",
"145.1 0 LINE"
);
}
);
width = 702.43;
}
);
leftKerningGroup = u;
rightKerningGroup = u;
unicode = 0075;
},
{
glyphname = v;
lastChange = "2019-09-10 19:27:05 +0000";
layers = (
{
layerId = "2BED5241-FEE2-452B-8B42-4A46EDD0955E";
paths = (
{
closed = 1;
nodes = (
"546 0 LINE",
"767.896 317 LINE",
"804.219 523 LINE",
"512.219 523 LINE",
"404.22 109 LINE",
"362.22 109 LINE",
"400.219 523 LINE",
"109.219 523 LINE",
"72.896 317 LINE",
"182 0 LINE"
);
}
);
width = 729;
}
);
leftKerningGroup = v;
rightKerningGroup = v;
unicode = 0076;
},
{
glyphname = w;
lastChange = "2019-09-10 19:27:05 +0000";
layers = (
{
anchors = (
{
name = bottom;
position = "{545, 0}";
},
{
name = top;
position = "{635.219, 523}";
}
);
layerId = "2BED5241-FEE2-452B-8B42-4A46EDD0955E";
paths = (
{
closed = 1;
nodes = (
"514 0 LINE",
"559.106 80 LINE",
"574 0 LINE",
"921 0 LINE",
"1124.896 317 LINE",
"1161.219 523 LINE",
"875.219 523 LINE",
"758.22 109 LINE",
"716.22 109 LINE",
"745.219 523 LINE",
"524.219 523 LINE",
"407.22 109 LINE",
"366.22 109 LINE",
"395.219 523 LINE",
"109.219 523 LINE",
"72.896 317 LINE",
"163 0 LINE"
);
}
);
width = 1086;
}
);
leftKerningGroup = w;
leftMetricsKey = v;
rightKerningGroup = w;
rightMetricsKey = v;
unicode = 0077;
},
{
glyphname = x;
lastChange = "2019-09-10 19:27:05 +0000";
layers = (
{
layerId = "2BED5241-FEE2-452B-8B42-4A46EDD0955E";
paths = (
{
closed = 1;
nodes = (
"311 0 LINE",
"382.026 227 LINE",
"424.026 227 LINE",
"415 0 LINE",
"709 0 LINE",
"734.391 144 LINE",
"630.385 280.9 LINE",
"781.823 413 LINE",
"801.219 523 LINE",
"507.219 523 LINE",
"442.717 333 LINE",
"400.717 333 LINE",
"403.219 523 LINE",
"109.219 523 LINE",
"89.823 413 LINE",
"194.675 280.9 LINE",
"42.391 144 LINE",
"17 0 LINE"
);
}
);
width = 726;
},
{
associatedMasterId = "2BED5241-FEE2-452B-8B42-4A46EDD0955E";
layerId = "DC11F9F4-2B2B-431C-8BE4-C72EA300D1B3";
name = "Sep 29 16, 12:21";
paths = (
{
closed = 1;
nodes = (
"283 0 LINE",
"311 196 LINE",
"349 196 LINE",
"377 0 LINE",
"640 0 LINE",
"640 131 LINE",
"494 287 LINE",
"493 224 LINE",
"640 375 LINE",
"640 475 LINE",
"377 475 LINE",
"349 313 LINE",
"311 313 LINE",
"283 475 LINE",
"20 475 LINE",
"20 375 LINE",
"167 224 LINE",
"166 287 LINE",
"20 131 LINE",
"20 0 LINE"
);
}
);
width = 660;
}
);
leftKerningGroup = x;
rightKerningGroup = x;
rightMetricsKey = v;
unicode = 0078;
},
{
glyphname = y;
lastChange = "2019-09-10 19:27:05 +0000";
layers = (
{
anchors = (
{
name = top;
position = "{440.189, 523}";
}
);
layerId = "2BED5241-FEE2-452B-8B42-4A46EDD0955E";
paths = (
{
closed = 1;
nodes = (
"500.997 -187 LINE",
"653.154 -50 LINE",
"754.189 523 LINE",
"486.189 523 LINE",
"417.421 133 LINE",
"350.897 96 LINE",
"318.897 96 LINE",
"394.189 523 LINE",
"126.189 523 LINE",
"51.779 101 LINE",
"146.204 7 LINE",
"347.204 7 LINE",
"401.023 40 LINE",
"390.796 -18 LINE",
"352.859 -46 LINE",
"49.859 -46 LINE",
"24.997 -187 LINE"
);
}
);
width = 701.19;
}
);
leftKerningGroup = u;
rightKerningGroup = u;
rightMetricsKey = u;
unicode = 0079;
},
{
glyphname = ydotbelow;
lastChange = "2019-09-10 19:27:05 +0000";
layers = (
{
components = (
{
name = y;
}
);
guideLines = (
{
position = "{328, -42}";
}
);
layerId = "2BED5241-FEE2-452B-8B42-4A46EDD0955E";
paths = (
{
closed = 1;
nodes = (
"944.113 -181.008 LINE",
"971.973 -23.008 LINE",
"698.973 -23.008 LINE",
"671.113 -181.008 LINE"
);
}
);
width = 1005.03;
}
);
leftKerningGroup = u;
rightKerningGroup = u;
unicode = 1EF5;
},
{
glyphname = z;
lastChange = "2019-09-10 19:27:05 +0000";
layers = (
{
anchors = (
{
name = top;
position = "{408.219, 523}";
}
);
layerId = "2BED5241-FEE2-452B-8B42-4A46EDD0955E";
paths = (
{
closed = 1;
nodes = (
"596 0 LINE",
"619.98 136 LINE",
"380.477 136 LINE",
"652.299 376 LINE",
"678.219 523 LINE",
"149.219 523 LINE",
"125.062 386 LINE",
"332.627 386 LINE",
"57.862 141 LINE",
"33 0 LINE"
);
}
);
width = 629;
}
);
leftKerningGroup = z;
rightKerningGroup = z;
unicode = 007A;
},
{
glyphname = f_f;
lastChange = "2019-09-10 19:27:05 +0000";
layers = (
{
layerId = "2BED5241-FEE2-452B-8B42-4A46EDD0955E";
paths = (
{
closed = 1;
nodes = (
"317 0 LINE",
"388.236 404 LINE",
"542.236 404 LINE",
"471 0 LINE",
"744 0 LINE",
"815.236 404 LINE",
"906.236 404 LINE",
"927.219 523 LINE",
"836.219 523 LINE",
"852.793 617 LINE",
"967.794 617 LINE",
"988.953 737 LINE",
"711.953 737 LINE",
"584.202 642 LINE",
"563.219 523 LINE",
"409.219 523 LINE",
"425.793 617 LINE",
"540.794 617 LINE",
"561.953 737 LINE",
"284.953 737 LINE",
"157.202 642 LINE",
"136.219 523 LINE",
"93.219 523 LINE",
"72.236 404 LINE",
"115.236 404 LINE",
"44 0 LINE"
);
}
);
width = 854;
}
);
leftKerningGroup = f;
leftMetricsKey = f;
rightMetricsKey = f;
},
{
glyphname = f_f_i;
lastChange = "2019-09-10 19:27:05 +0000";
layers = (
{
anchors = (
{
name = ogonek;
position = "{1158.188, 0}";
}
);
layerId = "2BED5241-FEE2-452B-8B42-4A46EDD0955E";
paths = (
{
closed = 1;
nodes = (
"317 0 LINE",
"388.236 404 LINE",
"541.337 404 LINE",
"470.101 0 LINE",
"743.101 0 LINE",
"814.337 404 LINE",
"905.337 404 LINE",
"926.32 523 LINE",
"835.32 523 LINE",
"851.894 617 LINE",
"1155.1 617.6 LINE",
"1176.259 737.6 LINE",
"711.054 737 LINE",
"583.303 642 LINE",
"562.32 523 LINE",
"409.219 523 LINE",
"425.793 617 LINE",
"540.794 617 LINE",
"561.953 737 LINE",
"284.953 737 LINE",
"157.202 642 LINE",
"136.219 523 LINE",
"93.219 523 LINE",
"72.236 404 LINE",
"115.236 404 LINE",
"44 0 LINE"
);
},
{
closed = 1;
nodes = (
"1158.188 0 LINE",
"1250.319 522.5 LINE",
"977.419 522.5 LINE",
"885.288 0 LINE"
);
}
);
width = 1160.14;
}
);
leftKerningGroup = f;
leftMetricsKey = f;
rightMetricsKey = i;
},
{
glyphname = f_f_l;
lastChange = "2019-09-10 19:27:05 +0000";
layers = (
{
layerId = "2BED5241-FEE2-452B-8B42-4A46EDD0955E";
paths = (
{
closed = 1;
nodes = (
"317 0 LINE",
"388.236 404 LINE",
"541.524 404 LINE",
"470.288 0 LINE",
"743.288 0 LINE",
"814.524 404 LINE",
"905.524 404 LINE",
"926.507 523 LINE",
"835.507 523 LINE",
"852.081 617 LINE",
"967.082 617 LINE",
"988.241 737 LINE",
"711.241 737 LINE",
"583.49 642 LINE",
"562.507 523 LINE",
"409.219 523 LINE",
"425.793 617 LINE",
"540.794 617 LINE",
"561.953 737 LINE",
"284.953 737 LINE",
"157.202 642 LINE",
"136.219 523 LINE",
"93.219 523 LINE",
"72.236 404 LINE",
"115.236 404 LINE",
"44 0 LINE"
);
},
{
closed = 1;
nodes = (
"1165 0 LINE",
"1294.953 737 LINE",
"1020.953 737 LINE",
"891 0 LINE"
);
}
);
width = 1204;
}
);
leftKerningGroup = f;
leftMetricsKey = f;
rightMetricsKey = l;
},
{
glyphname = fi;
lastChange = "2019-09-10 19:27:05 +0000";
layers = (
{
anchors = (
{
name = ogonek;
position = "{739.088, 0}";
}
);
layerId = "2BED5241-FEE2-452B-8B42-4A46EDD0955E";
paths = (
{
closed = 1;
nodes = (
"317 0 LINE",
"388.236 404 LINE",
"479.236 404 LINE",
"500.219 523 LINE",
"409.219 523 LINE",
"425.793 617 LINE",
"727.794 617 LINE",
"748.953 737 LINE",
"284.953 737 LINE",
"157.202 642 LINE",
"136.219 523 LINE",
"93.219 523 LINE",
"72.236 404 LINE",
"115.236 404 LINE",
"44 0 LINE"
);
},
{
closed = 1;
nodes = (
"739.088 0 LINE",
"831.219 522.5 LINE",
"558.319 522.5 LINE",
"466.188 0 LINE"
);
}
);
width = 778.22;
}
);
leftKerningGroup = f;
leftMetricsKey = f;
unicode = FB01;
},
{
glyphname = ordfeminine;
lastChange = "2019-09-10 19:27:05 +0000";
layers = (
{
layerId = "2BED5241-FEE2-452B-8B42-4A46EDD0955E";
paths = (
{
closed = 1;
nodes = (
"319.719 316 LINE",
"379.359 365 LINE",
"370.719 316 LINE",
"597.719 316 LINE",
"653.262 631 LINE",
"569.953 737 LINE",
"221.953 737 LINE",
"204.497 638 LINE",
"423.497 638 LINE",
"415.386 592 LINE",
"226.386 592 LINE",
"128.398 507 LINE",
"110.236 404 LINE",
"181.719 316 LINE"
);
},
{
closed = 1;
nodes = (
"339.277 529 LINE",
"404.277 529 LINE",
"388.937 442 LINE",
"313.886 385 LINE"
);
}
);
width = 581;
}
);
unicode = 00AA;
},
{
glyphname = ordmasculine;
lastChange = "2019-09-10 19:27:05 +0000";
layers = (
{
layerId = "2BED5241-FEE2-452B-8B42-4A46EDD0955E";
paths = (
{
closed = 1;
nodes = (
"522.719 316 LINE",
"629.941 408 LINE",
"671.731 645 LINE",
"596.953 737 LINE",
"259.953 737 LINE",
"152.731 645 LINE",
"110.941 408 LINE",
"185.719 316 LINE"
);
},
{
closed = 1;
nodes = (
"378.202 642 LINE",
"445.202 642 LINE",
"404.47 411 LINE",
"337.47 411 LINE"
);
}
);
width = 597;
}
);
unicode = 00BA;
},
{
glyphname = zero;
lastChange = "2019-09-10 19:27:05 +0000";
layers = (
{
layerId = "2BED5241-FEE2-452B-8B42-4A46EDD0955E";
paths = (
{
closed = 1;
nodes = (
"647 0 LINE",
"774.751 95 LINE",
"871.202 642 LINE",
"776.953 737 LINE",
"274.953 737 LINE",
"147.202 642 LINE",
"50.751 95 LINE",
"145 0 LINE"
);
},
{
closed = 1;
nodes = (
"426.975 584 LINE",
"570.975 584 LINE",
"494.978 153 LINE",
"350.978 153 LINE"
);
}
);
width = 792;
}
);
leftKerningGroup = zero;
leftMetricsKey = O;
rightKerningGroup = zero;
rightMetricsKey = O;
unicode = 0030;
},
{
glyphname = one;
lastChange = "2019-09-10 19:27:05 +0000";
layers = (
{
layerId = "2BED5241-FEE2-452B-8B42-4A46EDD0955E";
paths = (
{
closed = 1;
nodes = (
"519 0 LINE",
"553.736 197 LINE",
"453.736 197 LINE",
"548.953 737 LINE",
"181.953 737 LINE",
"147.217 540 LINE",
"233.217 540 LINE",
"172.736 197 LINE",
"73.736 197 LINE",
"39 0 LINE"
);
}
);
width = 547;
}
);
leftKerningGroup = one;
rightKerningGroup = one;
unicode = 0031;
},
{
glyphname = two;
lastChange = "2019-09-10 19:27:05 +0000";
layers = (
{
layerId = "2BED5241-FEE2-452B-8B42-4A46EDD0955E";
paths = (
{
closed = 1;
nodes = (
"745 0 LINE",
"779.736 197 LINE",
"449.64 197 LINE",
"813.542 417.242 LINE",
"853.202 642 LINE",
"758.953 737 LINE",
"279.953 737 LINE",
"152.202 642 LINE",
"122.226 472 LINE",
"408.226 472 LINE",
"431.854 606 LINE",
"576.854 606 LINE",
"559.707 507.862 LINE",
"81.944 235.386 LINE",
"39 0 LINE"
);
}
);
width = 773;
}
);
leftKerningGroup = two;
rightKerningGroup = two;
unicode = 0032;
},
{
glyphname = three;
lastChange = "2019-09-10 19:27:05 +0000";
layers = (
{
layerId = "2BED5241-FEE2-452B-8B42-4A46EDD0955E";
paths = (
{
closed = 1;
nodes = (
"664.43 0 LINE",
"779.002 111 LINE",
"811.623 296 LINE",
"743.729 376 LINE",
"840.011 457 LINE",
"869.811 626 LINE",
"794.383 737 LINE",
"263.383 737 LINE",
"148.811 626 LINE",
"128.004 508 LINE",
"414.004 508 LINE",
"428.463 590 LINE",
"571.463 590 LINE",
"548.011 457 LINE",
"313.011 457 LINE",
"284.446 295 LINE",
"519.446 295 LINE",
"493.35 147 LINE",
"350.35 147 LINE",
"365.162 231 LINE",
"79.162 231 LINE",
"58.002 111 LINE",
"133.43 0 LINE"
);
}
);
width = 793.81;
}
);
leftKerningGroup = three;
rightKerningGroup = three;
unicode = 0033;
},
{
glyphname = four;
lastChange = "2019-09-10 19:27:05 +0000";
layers = (
{
layerId = "2BED5241-FEE2-452B-8B42-4A46EDD0955E";
paths = (
{
closed = 1;
nodes = (
"713 0 LINE",
"729.222 92 LINE",
"810.222 92 LINE",
"840.727 265 LINE",
"759.727 265 LINE",
"842.953 737 LINE",
"518.867 737 LINE",
"64.491 297.688 LINE",
"28.222 92 LINE",
"435.222 92 LINE",
"419 0 LINE"
);
},
{
closed = 1;
nodes = (
"499.581 457 LINE",
"465.727 265 LINE",
"321.727 265 LINE"
);
}
);
width = 816;
}
);
leftKerningGroup = four;
rightKerningGroup = four;
unicode = 0034;
},
{
glyphname = five;
lastChange = "2019-09-10 19:27:05 +0000";
layers = (
{
background = {
hints = (
{
origin = "{0, 0}";
type = Corner;
name = _corner.dia_esq;
options = 1;
},
{
origin = "{0, 4}";
type = Corner;
name = _corner.dia_dir;
options = 1;
}
);
paths = (
{
closed = 1;
nodes = (
"686 0 LINE",
"686 269 LINE",
"612 342 LINE",
"686 415 LINE",
"686 670 LINE",
"151 670 LINE",
"40 583 LINE",
"40 462 LINE",
"295 462 LINE",
"295 536 LINE",
"425 536 LINE",
"425 415 LINE",
"216 415 LINE",
"216 268 LINE",
"425 268 LINE",
"425 134 LINE",
"295 134 LINE",
"295 210 LINE",
"40 210 LINE",
"40 87 LINE",
"139 0 LINE"
);
}
);
};
layerId = "2BED5241-FEE2-452B-8B42-4A46EDD0955E";
paths = (
{
closed = 1;
nodes = (
"649 0 LINE",
"776.751 95 LINE",
"825.594 372 LINE",
"731.168 466 LINE",
"420.168 466 LINE",
"433.217 540 LINE",
"825.217 540 LINE",
"859.953 737 LINE",
"182.953 737 LINE",
"107.838 311 LINE",
"522.838 311 LINE",
"493.744 146 LINE",
"350.744 146 LINE",
"367.142 239 LINE",
"81.142 239 LINE",
"55.751 95 LINE",
"150 0 LINE"
);
}
);
width = 793.95;
}
);
leftKerningGroup = five;
rightKerningGroup = five;
unicode = 0035;
},
{
glyphname = six;
lastChange = "2019-09-10 19:27:05 +0000";
layers = (
{
layerId = "2BED5241-FEE2-452B-8B42-4A46EDD0955E";
paths = (
{
closed = 1;
nodes = (
"648 0 LINE",
"775.751 95 LINE",
"822.654 361 LINE",
"730.758 458 LINE",
"403.758 458 LINE",
"426.151 585 LINE",
"572.151 585 LINE",
"558.398 507 LINE",
"835.398 507 LINE",
"859.202 642 LINE",
"764.953 737 LINE",
"274.953 737 LINE",
"147.202 642 LINE",
"50.751 95 LINE",
"145 0 LINE"
);
},
{
closed = 1;
nodes = (
"380.306 325 LINE",
"527.306 325 LINE",
"496.978 153 LINE",
"349.978 153 LINE"
);
}
);
width = 793.2;
}
);
leftKerningGroup = six;
leftMetricsKey = O;
rightKerningGroup = six;
unicode = 0036;
},
{
glyphname = seven;
lastChange = "2019-09-10 19:27:05 +0000";
layers = (
{
layerId = "2BED5241-FEE2-452B-8B42-4A46EDD0955E";
paths = (
{
closed = 1;
nodes = (
"338 0 LINE",
"754.217 540 LINE",
"788.953 737 LINE",
"140.953 737 LINE",
"106.217 540 LINE",
"423.217 540 LINE",
"0 0 LINE"
);
}
);
width = 676;
}
);
leftKerningGroup = seven;
rightKerningGroup = seven;
unicode = 0037;
},
{
glyphname = eight;
lastChange = "2019-09-10 19:27:05 +0000";
layers = (
{
background = {
hints = (
{
origin = "{0, 0}";
type = Corner;
name = _corner.dia_esq;
options = 1;
},
{
origin = "{0, 1}";
type = Corner;
name = _corner.dia_dir;
options = 1;
},
{
origin = "{0, 2}";
type = Corner;
name = _corner.dia_esq;
options = 1;
},
{
origin = "{0, 3}";
type = Corner;
name = _corner.dia_dir;
options = 1;
}
);
paths = (
{
closed = 1;
nodes = (
"685 0 LINE",
"685 670 LINE",
"35 670 LINE",
"35 0 LINE"
);
},
{
closed = 1;
nodes = (
"294 531 LINE",
"426 531 LINE",
"426 139 LINE",
"294 139 LINE"
);
}
);
};
hints = (
{
horizontal = 1;
origin = "{0, 13}";
target = "{1, 3}";
type = Stem;
},
{
horizontal = 1;
origin = "{1, 0}";
target = "{2, 3}";
type = Stem;
},
{
horizontal = 1;
origin = "{2, 0}";
target = "{0, 7}";
type = Stem;
},
{
place = "{22.353, 26.824}";
type = Stem;
},
{
place = "{106.118, 26.824}";
type = Stem;
},
{
place = "{17.647, 26.824}";
type = Stem;
},
{
place = "{110.824, 26.824}";
type = Stem;
}
);
layerId = "2BED5241-FEE2-452B-8B42-4A46EDD0955E";
paths = (
{
closed = 1;
nodes = (
"650 0 LINE",
"777.751 95 LINE",
"812.84 294 LINE",
"725.357 382 LINE",
"828.581 457 LINE",
"861.202 642 LINE",
"766.953 737 LINE",
"287.953 737 LINE",
"160.202 642 LINE",
"127.581 457 LINE",
"203.357 382 LINE",
"85.84 294 LINE",
"50.751 95 LINE",
"145 0 LINE"
);
},
{
closed = 1;
nodes = (
"379.896 317 LINE",
"524.896 317 LINE",
"495.978 153 LINE",
"350.978 153 LINE"
);
},
{
closed = 1;
nodes = (
"426.975 584 LINE",
"571.975 584 LINE",
"547.994 448 LINE",
"402.994 448 LINE"
);
}
);
width = 795.2;
}
);
leftKerningGroup = eight;
leftMetricsKey = O;
rightKerningGroup = eight;
unicode = 0038;
},
{
glyphname = nine;
lastChange = "2019-09-10 19:27:05 +0000";
layers = (
{
background = {
hints = (
{
origin = "{0, 0}";
type = Corner;
name = _corner.dia_esq;
options = 1;
},
{
origin = "{0, 1}";
type = Corner;
name = _corner.dia_dir;
options = 1;
},
{
origin = "{0, 2}";
type = Corner;
name = _corner.dia_esq;
options = 1;
},
{
origin = "{0, 3}";
type = Corner;
name = _corner.dia_dir;
options = 1;
}
);
paths = (
{
closed = 1;
nodes = (
"684.25 0 LINE",
"684.25 670 LINE",
"34.25 670 LINE",
"34.25 0 LINE"
);
},
{
closed = 1;
nodes = (
"293.25 531 LINE",
"425.25 531 LINE",
"425.25 139 LINE",
"293.25 139 LINE"
);
}
);
};
layerId = "2BED5241-FEE2-452B-8B42-4A46EDD0955E";
paths = (
{
closed = 1;
nodes = (
"648.25 0 LINE",
"776.001 95 LINE",
"872.452 642 LINE",
"778.203 737 LINE",
"274.203 737 LINE",
"146.452 642 LINE",
"99.196 374 LINE",
"193.445 279 LINE",
"517.445 279 LINE",
"495.228 153 LINE",
"350.228 153 LINE",
"363.805 230 LINE",
"84.805 230 LINE",
"61.001 95 LINE",
"155.25 0 LINE"
);
},
{
closed = 1;
nodes = (
"426.225 584 LINE",
"571.225 584 LINE",
"541.073 413 LINE",
"396.073 413 LINE"
);
}
);
width = 793.25;
}
);
leftKerningGroup = nine;
rightKerningGroup = nine;
rightMetricsKey = O;
unicode = 0039;
},
{
glyphname = onesuperior;
lastChange = "2019-09-10 19:27:05 +0000";
layers = (
{
background = {
paths = (
{
closed = 1;
nodes = (
"198.11 581 LINE",
"198.11 670 LINE",
"51.11 670 LINE",
"51.11 581 LINE"
);
},
{
closed = 1;
nodes = (
"258.11 335 LINE",
"258.11 425 LINE",
"45.11 425 LINE",
"45.11 335 LINE"
);
},
{
closed = 1;
nodes = (
"218.11 335 LINE",
"218.11 670 LINE",
"85.11 670 LINE",
"85.11 335 LINE"
);
}
);
};
layerId = "2BED5241-FEE2-452B-8B42-4A46EDD0955E";
paths = (
{
closed = 1;
nodes = (
"358.998 368 LINE",
"376.631 468 LINE",
"327.631 468 LINE",
"375.063 737 LINE",
"176.063 737 LINE",
"158.783 639 LINE",
"201.783 639 LINE",
"171.631 468 LINE",
"121.631 468 LINE",
"103.998 368 LINE"
);
}
);
width = 322.63;
}
);
unicode = 00B9;
},
{
glyphname = twosuperior;
lastChange = "2019-09-10 19:27:05 +0000";
layers = (
{
layerId = "2BED5241-FEE2-452B-8B42-4A46EDD0955E";
paths = (
{
closed = 1;
nodes = (
"382.998 368 LINE",
"400.631 468 LINE",
"231.118 468 LINE",
"417.121 578.532 LINE",
"436.599 689 LINE",
"387.063 737 LINE",
"136.063 737 LINE",
"70.599 689 LINE",
"55.788 605 LINE",
"211.788 605 LINE",
"223.602 672 LINE",
"284.602 672 LINE",
"275.641 621.369 LINE",
"34.632 485.016 LINE",
"13.998 368 LINE"
);
}
);
width = 346.6;
}
);
unicode = 00B2;
},
{
glyphname = threesuperior;
lastChange = "2019-09-10 19:27:05 +0000";
layers = (
{
layerId = "2BED5241-FEE2-452B-8B42-4A46EDD0955E";
paths = (
{
closed = 1;
nodes = (
"422.358 368 LINE",
"487.998 417 LINE",
"505.455 516 LINE",
"469.684 557 LINE",
"519.914 598 LINE",
"535.959 689 LINE",
"487.423 737 LINE",
"226.423 737 LINE",
"159.959 689 LINE",
"148.322 623 LINE",
"305.322 623 LINE",
"312.375 663 LINE",
"372.375 663 LINE",
"360.737 597 LINE",
"240.737 597 LINE",
"226.455 516 LINE",
"346.455 516 LINE",
"333.407 442 LINE",
"273.407 442 LINE",
"280.812 484 LINE",
"123.812 484 LINE",
"111.998 417 LINE",
"161.358 368 LINE"
);
}
);
width = 448.96;
}
);
unicode = 00B3;
},
{
glyphname = foursuperior;
lastChange = "2019-09-10 19:27:05 +0000";
layers = (
{
layerId = "2BED5241-FEE2-452B-8B42-4A46EDD0955E";
paths = (
{
closed = 1;
nodes = (
"431.708 368 LINE",
"439.996 415 LINE",
"480.996 415 LINE",
"496.336 502 LINE",
"455.336 502 LINE",
"496.773 737 LINE",
"330.228 737 LINE",
"103.286 518.731 LINE",
"84.996 415 LINE",
"288.996 415 LINE",
"280.708 368 LINE"
);
},
{
closed = 1;
nodes = (
"312.795 584 LINE",
"298.336 502 LINE",
"236.336 502 LINE"
);
}
);
width = 430.77;
}
);
unicode = 2074;
},
{
glyphname = fraction;
lastChange = "2019-09-10 19:27:05 +0000";
layers = (
{
layerId = "2BED5241-FEE2-452B-8B42-4A46EDD0955E";
paths = (
{
closed = 1;
nodes = (
"791.35 731.295 LINE",
"687.494 806.072 LINE",
"41.003 9.192 LINE",
"144.649 -69.11 LINE"
);
}
);
width = 702.35;
}
);
unicode = 2044;
},
{
glyphname = onehalf;
lastChange = "2019-09-10 19:27:05 +0000";
layers = (
{
layerId = "2BED5241-FEE2-452B-8B42-4A46EDD0955E";
paths = (
{
closed = 1;
nodes = (
"845.462 730.653 LINE",
"740.805 806.337 LINE",
"93.995 9.379 LINE",
"197.642 -68.924 LINE"
);
},
{
closed = 1;
nodes = (
"359.298 368 LINE",
"376.931 468 LINE",
"327.931 468 LINE",
"375.363 737 LINE",
"180.363 737 LINE",
"163.083 639 LINE",
"206.083 639 LINE",
"175.931 468 LINE",
"125.931 468 LINE",
"108.298 368 LINE"
);
},
{
closed = 1;
nodes = (
"852.41 0 LINE",
"870.043 100 LINE",
"705.368 100 LINE",
"886.53 210.518 LINE",
"906.011 321 LINE",
"856.475 369 LINE",
"609.475 369 LINE",
"544.011 321 LINE",
"529.199 237 LINE",
"683.199 237 LINE",
"695.013 304 LINE",
"756.013 304 LINE",
"747.075 253.309 LINE",
"507.482 114.013 LINE",
"487.41 0 LINE"
);
}
);
width = 896.01;
}
);
unicode = 00BD;
},
{
glyphname = onequarter;
lastChange = "2019-09-10 19:27:05 +0000";
layers = (
{
background = {
paths = (
{
closed = 1;
nodes = (
"748.028 0.062 LINE",
"756.315 47.062 LINE",
"797.315 47.062 LINE",
"812.656 134.062 LINE",
"771.656 134.062 LINE",
"813.093 369.062 LINE",
"664.093 369.062 LINE",
"423.656 134.062 LINE",
"408.315 47.062 LINE",
"612.315 47.062 LINE",
"604.028 0.062 LINE"
);
}
);
};
layerId = "2BED5241-FEE2-452B-8B42-4A46EDD0955E";
paths = (
{
closed = 1;
nodes = (
"648.115 216.062 LINE",
"633.656 134.062 LINE",
"571.656 134.062 LINE"
);
},
{
closed = 1;
nodes = (
"760.028 0.062 LINE",
"768.315 47.062 LINE",
"809.315 47.062 LINE",
"824.656 134.062 LINE",
"783.656 134.062 LINE",
"825.093 369.062 LINE",
"666.457 369.062 LINE",
"438.463 149.978 LINE",
"420.315 47.062 LINE",
"624.315 47.062 LINE",
"616.028 0.062 LINE"
);
},
{
closed = 1;
nodes = (
"845.462 730.653 LINE",
"740.805 806.337 LINE",
"93.995 9.379 LINE",
"197.642 -68.924 LINE"
);
},
{
closed = 1;
nodes = (
"359.298 368 LINE",
"376.931 468 LINE",
"327.931 468 LINE",
"375.363 737 LINE",
"180.363 737 LINE",
"163.083 639 LINE",
"206.083 639 LINE",
"175.931 468 LINE",
"125.931 468 LINE",
"108.298 368 LINE"
);
}
);
width = 845.46;
}
);
unicode = 00BC;
},
{
glyphname = threequarters;
lastChange = "2019-09-10 19:27:05 +0000";
layers = (
{
layerId = "2BED5241-FEE2-452B-8B42-4A46EDD0955E";
paths = (
{
closed = 1;
nodes = (
"416.358 368 LINE",
"481.998 417 LINE",
"499.455 516 LINE",
"463.684 557 LINE",
"513.914 598 LINE",
"529.959 689 LINE",
"481.423 737 LINE",
"224.423 737 LINE",
"157.959 689 LINE",
"146.322 623 LINE",
"301.322 623 LINE",
"308.375 663 LINE",
"368.375 663 LINE",
"356.737 597 LINE",
"238.737 597 LINE",
"224.455 516 LINE",
"342.455 516 LINE",
"329.407 442 LINE",
"266.407 442 LINE",
"273.812 484 LINE",
"121.812 484 LINE",
"109.998 417 LINE",
"159.358 368 LINE"
);
},
{
closed = 1;
nodes = (
"736.585 216.062 LINE",
"722.126 134.062 LINE",
"660.126 134.062 LINE"
);
},
{
closed = 1;
nodes = (
"848.498 0.062 LINE",
"856.785 47.062 LINE",
"897.785 47.062 LINE",
"913.126 134.062 LINE",
"872.126 134.062 LINE",
"913.563 369.062 LINE",
"754.927 369.062 LINE",
"526.933 149.978 LINE",
"508.785 47.062 LINE",
"712.785 47.062 LINE",
"704.498 0.062 LINE"
);
},
{
closed = 1;
nodes = (
"933.932 730.653 LINE",
"829.275 806.337 LINE",
"182.465 9.379 LINE",
"286.112 -68.924 LINE"
);
}
);
width = 933.93;
}
);
unicode = 00BE;
},
{
glyphname = period;
lastChange = "2019-09-10 19:27:05 +0000";
layers = (
{
layerId = "2BED5241-FEE2-452B-8B42-4A46EDD0955E";
paths = (
{
closed = 1;
nodes = (
"288 0 LINE",
"320.973 187 LINE",
"93.973 187 LINE",
"61 0 LINE"
);
}
);
width = 368;
}
);
leftKerningGroup = period;
rightKerningGroup = period;
unicode = 002E;
},
{
glyphname = comma;
lastChange = "2019-09-10 19:27:05 +0000";
layers = (
{
layerId = "2BED5241-FEE2-452B-8B42-4A46EDD0955E";
paths = (
{
closed = 1;
nodes = (
"193.604 -110 LINE",
"381.797 186 LINE",
"149.797 186 LINE",
"46.604 -110 LINE"
);
}
);
width = 396;
}
);
leftKerningGroup = period;
rightKerningGroup = period;
unicode = 002C;
},
{
glyphname = colon;
lastChange = "2019-09-10 19:27:05 +0000";
layers = (
{
layerId = "2BED5241-FEE2-452B-8B42-4A46EDD0955E";
paths = (
{
closed = 1;
nodes = (
"346.835 328 LINE",
"379.808 515 LINE",
"151.808 515 LINE",
"118.835 328 LINE"
);
},
{
closed = 1;
nodes = (
"289 0 LINE",
"321.973 187 LINE",
"93.973 187 LINE",
"61 0 LINE"
);
}
);
width = 368;
}
);
leftKerningGroup = period;
rightKerningGroup = period;
unicode = 003A;
},
{
glyphname = semicolon;
lastChange = "2019-09-10 19:27:05 +0000";
layers = (
{
layerId = "2BED5241-FEE2-452B-8B42-4A46EDD0955E";
paths = (
{
closed = 1;
nodes = (
"389.835 328 LINE",
"422.808 515 LINE",
"194.808 515 LINE",
"161.835 328 LINE"
);
},
{
closed = 1;
nodes = (
"184.604 -110 LINE",
"372.797 186 LINE",
"140.797 186 LINE",
"37.604 -110 LINE"
);
}
);
width = 406;
}
);
leftKerningGroup = colon;
rightKerningGroup = colon;
unicode = 003B;
},
{
glyphname = ellipsis;
lastChange = "2019-09-10 19:27:05 +0000";
layers = (
{
layerId = "2BED5241-FEE2-452B-8B42-4A46EDD0955E";
paths = (
{
closed = 1;
nodes = (
"931 0 LINE",
"963.973 187 LINE",
"735.973 187 LINE",
"703 0 LINE"
);
},
{
closed = 1;
nodes = (
"289 0 LINE",
"321.973 187 LINE",
"93.973 187 LINE",
"61 0 LINE"
);
},
{
closed = 1;
nodes = (
"610 0 LINE",
"642.973 187 LINE",
"414.973 187 LINE",
"382 0 LINE"
);
}
);
width = 1010;
}
);
leftKerningGroup = period;
rightKerningGroup = period;
unicode = 2026;
},
{
glyphname = exclam;
lastChange = "2019-09-10 19:27:05 +0000";
layers = (
{
layerId = "2BED5241-FEE2-452B-8B42-4A46EDD0955E";
paths = (
{
closed = 1;
nodes = (
"351.315 243.1 LINE",
"473.603 737 LINE",
"174.303 737 LINE",
"121.315 243.1 LINE"
);
},
{
closed = 1;
nodes = (
"308 0 LINE",
"340.973 187 LINE",
"112.973 187 LINE",
"80 0 LINE"
);
}
);
width = 387.6;
}
);
leftKerningGroup = exclam;
rightKerningGroup = exclam;
unicode = 0021;
},
{
glyphname = exclamdown;
lastChange = "2019-09-10 19:27:05 +0000";
layers = (
{
layerId = "2BED5241-FEE2-452B-8B42-4A46EDD0955E";
paths = (
{
closed = 1;
nodes = (
"305.299 -215.164 LINE",
"358.287 278.736 LINE",
"128.287 278.736 LINE",
"5.999 -215.164 LINE"
);
},
{
closed = 1;
nodes = (
"366.629 334.836 LINE",
"399.602 521.836 LINE",
"171.602 521.836 LINE",
"138.629 334.836 LINE"
);
}
);
width = 387.6;
}
);
leftKerningGroup = exclamdown;
rightKerningGroup = exclamdown;
unicode = 00A1;
},
{
glyphname = question;
lastChange = "2019-09-10 19:27:05 +0000";
layers = (
{
annotations = (
{
position = "{470.833, 173.526}";
type = Circle;
width = 150.65578;
}
);
layerId = "2BED5241-FEE2-452B-8B42-4A46EDD0955E";
paths = (
{
closed = 1;
nodes = (
"481.081 234 LINE",
"494.464 309.9 LINE",
"589.064 309.9 LINE",
"710.505 393.5 LINE",
"754.146 641 LINE",
"661.02 736.7 LINE",
"301.22 736.7 LINE",
"162.246 641 LINE",
"138.001 503.5 LINE",
"368.501 503.5 LINE",
"383.629 589.3 LINE",
"509.629 589.3 LINE",
"488.294 468.3 LINE",
"394.694 468.3 LINE",
"297.062 401.2 LINE",
"267.581 234 LINE"
);
},
{
closed = 1;
nodes = (
"443.7 -0.3 LINE",
"476.673 186.7 LINE",
"248.673 186.7 LINE",
"215.7 -0.3 LINE"
);
}
);
width = 685.15;
}
);
leftKerningGroup = question;
rightKerningGroup = question;
unicode = 003F;
},
{
glyphname = questiondown;
lastChange = "2019-09-10 19:27:05 +0000";
layers = (
{
layerId = "2BED5241-FEE2-452B-8B42-4A46EDD0955E";
paths = (
{
closed = 1;
nodes = (
"296.068 289 LINE",
"282.685 213.1 LINE",
"188.085 213.1 LINE",
"66.644 129.5 LINE",
"23.003 -118 LINE",
"116.129 -213.7 LINE",
"475.929 -213.7 LINE",
"614.903 -118 LINE",
"639.148 19.5 LINE",
"408.648 19.5 LINE",
"393.52 -66.3 LINE",
"267.52 -66.3 LINE",
"288.855 54.7 LINE",
"382.455 54.7 LINE",
"480.087 121.8 LINE",
"509.568 289 LINE"
);
},
{
closed = 1;
nodes = (
"333.449 523.3 LINE",
"300.476 336.3 LINE",
"528.476 336.3 LINE",
"561.449 523.3 LINE"
);
}
);
width = 685.15;
}
);
leftKerningGroup = questiondown;
rightKerningGroup = questiondown;
unicode = 00BF;
},
{
glyphname = periodcentered;
lastChange = "2019-09-10 19:27:05 +0000";
layers = (
{
layerId = "2BED5241-FEE2-452B-8B42-4A46EDD0955E";
paths = (
{
closed = 1;
nodes = (
"319.995 271 LINE",
"352.968 458 LINE",
"124.968 458 LINE",
"91.995 271 LINE"
);
}
);
width = 315.97;
}
);
leftKerningGroup = period;
rightKerningGroup = period;
unicode = 00B7;
},
{
glyphname = bullet;
lastChange = "2019-09-10 19:27:05 +0000";
layers = (
{
layerId = "2BED5241-FEE2-452B-8B42-4A46EDD0955E";
paths = (
{
closed = 1;
nodes = (
"344.186 189 LINE",
"461.995 290 LINE",
"489.678 447 LINE",
"407.487 548 LINE",
"239.487 548 LINE",
"122.678 447 LINE",
"94.995 290 LINE",
"176.186 189 LINE"
);
}
);
width = 482.68;
}
);
leftKerningGroup = bullet;
rightKerningGroup = bullet;
unicode = 2022;
},
{
glyphname = asterisk;
lastChange = "2019-09-10 19:27:05 +0000";
layers = (
{
layerId = "2BED5241-FEE2-452B-8B42-4A46EDD0955E";
paths = (
{
closed = 1;
nodes = (
"318.038 444.049 LINE",
"360.616 361.19 LINE",
"479.666 440.049 LINE",
"430.734 516.049 LINE",
"531.789 539.049 LINE",
"511.417 673.049 LINE",
"413.54 634.049 LINE",
"437.997 733.049 LINE",
"297.997 733.049 LINE",
"289.364 633.049 LINE",
"203.043 668.582 LINE",
"140.59 544.609 LINE",
"230.734 516.049 LINE",
"151.333 441.488 LINE",
"253.175 356.121 LINE"
);
}
);
width = 486.32;
}
);
leftKerningGroup = asterisk;
rightKerningGroup = asterisk;
unicode = 002A;
},
{
glyphname = numbersign;
lastChange = "2019-09-10 19:27:05 +0000";
layers = (
{
layerId = "2BED5241-FEE2-452B-8B42-4A46EDD0955E";
paths = (
{
closed = 1;
nodes = (
"390.48 0 LINE",
"418.997 88 LINE",
"478.997 88 LINE",
"451.48 0 LINE",
"720.48 0 LINE",
"747.997 88 LINE",
"858.997 88 LINE",
"884.388 232 LINE",
"792.388 232 LINE",
"811.967 292 LINE",
"921.967 292 LINE",
"947.535 437 LINE",
"857.535 437 LINE",
"884.699 523 LINE",
"615.699 523 LINE",
"588.535 437 LINE",
"528.535 437 LINE",
"555.699 523 LINE",
"286.699 523 LINE",
"259.535 437 LINE",
"147.535 437 LINE",
"121.967 292 LINE",
"213.967 292 LINE",
"195.388 232 LINE",
"85.388 232 LINE",
"59.997 88 LINE",
"149.997 88 LINE",
"121.48 0 LINE"
);
},
{
closed = 1;
nodes = (
"482.967 292 LINE",
"542.967 292 LINE",
"523.388 232 LINE",
"464.388 232 LINE"
);
}
);
width = 914.53;
}
);
leftKerningGroup = numbersign;
rightKerningGroup = numbersign;
unicode = 0023;
},
{
glyphname = slash;
lastChange = "2019-09-10 19:27:05 +0000";
layers = (
{
layerId = "2BED5241-FEE2-452B-8B42-4A46EDD0955E";
paths = (
{
closed = 1;
nodes = (
"299.78 -109 LINE",
"757.953 737 LINE",
"438.953 737 LINE",
"-19.22 -109 LINE"
);
}
);
width = 637;
}
);
leftKerningGroup = slash;
rightKerningGroup = slash;
unicode = 002F;
},
{
glyphname = backslash;
lastChange = "2019-09-10 19:27:05 +0000";
layers = (
{
layerId = "2BED5241-FEE2-452B-8B42-4A46EDD0955E";
paths = (
{
closed = 1;
nodes = (
"580.78 -109 LINE",
"420.953 737 LINE",
"135.953 737 LINE",
"295.78 -109 LINE"
);
}
);
width = 605.78;
}
);
leftKerningGroup = backslash;
rightKerningGroup = backslash;
unicode = 005C;
},
{
glyphname = periodcentered.loclCAT;
lastChange = "2019-09-10 19:27:05 +0000";
layers = (
{
layerId = "2BED5241-FEE2-452B-8B42-4A46EDD0955E";
paths = (
{
closed = 1;
nodes = (
"319.785 271 LINE",
"352.758 458 LINE",
"124.758 458 LINE",
"91.785 271 LINE"
);
}
);
width = 324;
}
);
},
{
glyphname = numbersign.01;
lastChange = "2019-09-10 19:27:05 +0000";
layers = (
{
layerId = "2BED5241-FEE2-452B-8B42-4A46EDD0955E";
paths = (
{
closed = 1;
nodes = (
"399.72 0 LINE",
"441.995 132 LINE",
"501.995 132 LINE",
"459.72 0 LINE",
"728.72 0 LINE",
"770.995 132 LINE",
"914.995 132 LINE",
"951.671 340 LINE",
"835.671 340 LINE",
"854.074 399 LINE",
"989.074 399 LINE",
"1025.75 607 LINE",
"919.75 607 LINE",
"960.673 737 LINE",
"691.673 737 LINE",
"650.75 607 LINE",
"591.75 607 LINE",
"631.673 737 LINE",
"362.673 737 LINE",
"322.75 607 LINE",
"176.75 607 LINE",
"140.074 399 LINE",
"256.074 399 LINE",
"237.671 340 LINE",
"103.671 340 LINE",
"66.995 132 LINE",
"172.995 132 LINE",
"130.72 0 LINE"
);
},
{
closed = 1;
nodes = (
"525.074 399 LINE",
"585.074 399 LINE",
"566.671 340 LINE",
"506.671 340 LINE"
);
}
);
width = 962.75;
}
);
leftKerningGroup = numbersign.01;
rightKerningGroup = numbersign.01;
},
{
glyphname = parenleft;
lastChange = "2019-09-10 19:27:05 +0000";
layers = (
{
layerId = "2BED5241-FEE2-452B-8B42-4A46EDD0955E";
paths = (
{
closed = 1;
nodes = (
"377.847 -187 LINE",
"402.709 -46 LINE",
"346.709 -46 LINE",
"281.344 37 LINE",
"390.314 655 LINE",
"484.773 737 LINE",
"540.773 737 LINE",
"565.811 879 LINE",
"377.811 879 LINE",
"165.662 691 LINE",
"43.996 1 LINE",
"189.847 -187 LINE"
);
}
);
width = 432.82;
}
);
leftKerningGroup = parenleft;
rightKerningGroup = parenleft;
unicode = 0028;
},
{
glyphname = parenright;
lastChange = "2019-09-10 19:27:05 +0000";
layers = (
{
layerId = "2BED5241-FEE2-452B-8B42-4A46EDD0955E";
paths = (
{
closed = 1;
nodes = (
"176.851 -188 LINE",
"389 0 LINE",
"510.666 690 LINE",
"364.815 878 LINE",
"176.815 878 LINE",
"151.953 737 LINE",
"207.953 737 LINE",
"273.318 654 LINE",
"164.348 36 LINE",
"69.889 -46 LINE",
"13.889 -46 LINE",
"-11.149 -188 LINE"
);
}
);
width = 433.67;
}
);
leftKerningGroup = parenright;
rightKerningGroup = parenright;
unicode = 0029;
},
{
glyphname = braceleft;
lastChange = "2019-09-10 19:27:05 +0000";
layers = (
{
layerId = "2BED5241-FEE2-452B-8B42-4A46EDD0955E";
paths = (
{
closed = 1;
nodes = (
"433.827 -187 LINE",
"458.689 -46 LINE",
"354.689 -46 LINE",
"410.408 270 LINE",
"347.633 345 LINE",
"437.21 422 LINE",
"492.753 737 LINE",
"596.753 737 LINE",
"621.791 879 LINE",
"397.791 879 LINE",
"264.28 757 LINE",
"203.623 413 LINE",
"116.623 413 LINE",
"92.995 279 LINE",
"179.995 279 LINE",
"119.339 -65 LINE",
"209.827 -187 LINE"
);
}
);
width = 483.8;
}
);
leftKerningGroup = braceleft;
rightKerningGroup = braceleft;
unicode = 007B;
},
{
glyphname = braceright;
lastChange = "2019-09-10 19:27:05 +0000";
layers = (
{
layerId = "2BED5241-FEE2-452B-8B42-4A46EDD0955E";
paths = (
{
closed = 1;
nodes = (
"208.053 -186.839 LINE",
"341.565 -64.839 LINE",
"402.222 279.161 LINE",
"489.222 279.161 LINE",
"512.849 413.161 LINE",
"425.849 413.161 LINE",
"486.506 757.161 LINE",
"396.018 879.161 LINE",
"172.018 879.161 LINE",
"146.979 737.161 LINE",
"250.979 737.161 LINE",
"195.436 422.161 LINE",
"257.859 345.161 LINE",
"168.635 270.161 LINE",
"112.915 -45.839 LINE",
"8.915 -45.839 LINE",
"-15.947 -186.839 LINE"
);
}
);
width = 484;
}
);
leftKerningGroup = braceright;
rightKerningGroup = braceright;
unicode = 007D;
},
{
glyphname = bracketleft;
lastChange = "2019-09-10 19:27:05 +0000";
layers = (
{
layerId = "2BED5241-FEE2-452B-8B42-4A46EDD0955E";
paths = (
{
closed = 1;
nodes = (
"342.997 -187 LINE",
"367.859 -46 LINE",
"266.859 -46 LINE",
"404.923 737 LINE",
"505.923 737 LINE",
"530.961 879 LINE",
"198.961 879 LINE",
"10.997 -187 LINE"
);
}
);
width = 397.97;
}
);
leftKerningGroup = bracketleft;
rightKerningGroup = bracketleft;
unicode = 005B;
},
{
glyphname = bracketright;
lastChange = "2019-09-10 19:27:05 +0000";
layers = (
{
layerId = "2BED5241-FEE2-452B-8B42-4A46EDD0955E";
paths = (
{
closed = 1;
nodes = (
"321.027 -187 LINE",
"508.991 879 LINE",
"176.991 879 LINE",
"151.953 737 LINE",
"252.953 737 LINE",
"114.889 -46 LINE",
"13.889 -46 LINE",
"-10.973 -187 LINE"
);
}
);
width = 397.99;
}
);
leftKerningGroup = bracketright;
rightKerningGroup = bracketright;
unicode = 005D;
},
{
glyphname = hyphen;
lastChange = "2019-09-10 19:27:05 +0000";
layers = (
{
layerId = "2BED5241-FEE2-452B-8B42-4A46EDD0955E";
paths = (
{
closed = 1;
nodes = (
"415.563 179 LINE",
"445.891 351 LINE",
"105.891 351 LINE",
"75.563 179 LINE"
);
}
);
width = 479;
}
);
leftKerningGroup = hyphen;
rightKerningGroup = hyphen;
unicode = 002D;
},
{
glyphname = softhyphen;
lastChange = "2019-09-10 19:27:05 +0000";
layers = (
{
layerId = "2BED5241-FEE2-452B-8B42-4A46EDD0955E";
paths = (
{
closed = 1;
nodes = (
"415.563 179 LINE",
"445.891 351 LINE",
"105.891 351 LINE",
"75.563 179 LINE"
);
}
);
width = 479;
}
);
unicode = 00AD;
},
{
glyphname = endash;
lastChange = "2019-09-10 19:27:05 +0000";
layers = (
{
layerId = "2BED5241-FEE2-452B-8B42-4A46EDD0955E";
paths = (
{
closed = 1;
nodes = (
"711.998 183 LINE",
"742.15 354 LINE",
"106.15 354 LINE",
"75.998 183 LINE"
);
}
);
width = 775.15;
}
);
leftKerningGroup = hyphen;
rightKerningGroup = hyphen;
unicode = 2013;
},
{
glyphname = emdash;
lastChange = "2019-09-10 19:27:05 +0000";
layers = (
{
layerId = "2BED5241-FEE2-452B-8B42-4A46EDD0955E";
paths = (
{
closed = 1;
nodes = (
"993.998 183 LINE",
"1024.15 354 LINE",
"106.15 354 LINE",
"75.998 183 LINE"
);
}
);
width = 1057.15;
}
);
leftKerningGroup = hyphen;
rightKerningGroup = hyphen;
unicode = 2014;
},
{
glyphname = hyphentwo;
lastChange = "2019-09-10 19:27:05 +0000";
layers = (
{
layerId = "2BED5241-FEE2-452B-8B42-4A46EDD0955E";
paths = (
{
closed = 1;
nodes = (
"416.003 179 LINE",
"446.331 351 LINE",
"106.331 351 LINE",
"76.003 179 LINE"
);
}
);
width = 670.44;
}
);
unicode = 2010;
},
{
glyphname = underscore;
lastChange = "2019-09-10 19:27:05 +0000";
layers = (
{
layerId = "2BED5241-FEE2-452B-8B42-4A46EDD0955E";
paths = (
{
closed = 1;
nodes = (
"617.5 -207 LINE",
"647.829 -35 LINE",
"-0.171 -35 LINE",
"-30.5 -207 LINE"
);
}
);
width = 659.83;
}
);
leftKerningGroup = underscore;
rightKerningGroup = underscore;
unicode = 005F;
},
{
glyphname = quotesinglbase;
lastChange = "2019-09-10 19:27:05 +0000";
layers = (
{
layerId = "2BED5241-FEE2-452B-8B42-4A46EDD0955E";
paths = (
{
closed = 1;
nodes = (
"181.735 -200 LINE",
"372.514 105 LINE",
"112.514 105 LINE",
"8.735 -200 LINE"
);
}
);
width = 397.51;
}
);
leftKerningGroup = quoteright;
rightKerningGroup = quotedblleft;
unicode = 201A;
},
{
glyphname = quotedblbase;
lastChange = "2019-09-10 19:27:05 +0000";
layers = (
{
layerId = "2BED5241-FEE2-452B-8B42-4A46EDD0955E";
paths = (
{
closed = 1;
nodes = (
"185.005 -200 LINE",
"375.784 105 LINE",
"115.784 105 LINE",
"12.005 -200 LINE"
);
},
{
closed = 1;
nodes = (
"468.005 -200 LINE",
"658.784 105 LINE",
"398.784 105 LINE",
"295.005 -200 LINE"
);
}
);
width = 680.78;
}
);
leftKerningGroup = quoteright;
rightKerningGroup = quoteright;
unicode = 201E;
},
{
glyphname = quotedblleft;
lastChange = "2019-09-10 19:27:05 +0000";
layers = (
{
layerId = "2BED5241-FEE2-452B-8B42-4A46EDD0955E";
paths = (
{
closed = 1;
nodes = (
"590.782 737 LINE",
"400.003 432 LINE",
"660.003 432 LINE",
"763.782 737 LINE"
);
},
{
closed = 1;
nodes = (
"307.782 737 LINE",
"117.003 432 LINE",
"377.003 432 LINE",
"480.782 737 LINE"
);
}
);
width = 680.78;
}
);
leftKerningGroup = quotedblleft;
rightKerningGroup = quotedblleft;
unicode = 201C;
},
{
glyphname = quotedblright;
lastChange = "2019-09-10 19:27:05 +0000";
layers = (
{
layerId = "2BED5241-FEE2-452B-8B42-4A46EDD0955E";
paths = (
{
closed = 1;
nodes = (
"293.004 432 LINE",
"483.783 737 LINE",
"223.783 737 LINE",
"120.004 432 LINE"
);
},
{
closed = 1;
nodes = (
"576.004 432 LINE",
"766.783 737 LINE",
"506.783 737 LINE",
"403.004 432 LINE"
);
}
);
width = 680.78;
}
);
leftKerningGroup = quoteright;
rightKerningGroup = quoteright;
unicode = 201D;
},
{
glyphname = quoteleft;
lastChange = "2019-09-10 19:27:05 +0000";
layers = (
{
layerId = "2BED5241-FEE2-452B-8B42-4A46EDD0955E";
paths = (
{
closed = 1;
nodes = (
"307.782 737 LINE",
"117.003 432 LINE",
"377.003 432 LINE",
"480.782 737 LINE"
);
}
);
width = 397.78;
}
);
leftKerningGroup = quotedblleft;
rightKerningGroup = quotedblleft;
unicode = 2018;
},
{
glyphname = quoteright;
lastChange = "2019-09-10 19:27:05 +0000";
layers = (
{
layerId = "2BED5241-FEE2-452B-8B42-4A46EDD0955E";
paths = (
{
closed = 1;
nodes = (
"293.004 432 LINE",
"483.783 737 LINE",
"223.783 737 LINE",
"120.004 432 LINE"
);
}
);
width = 397.78;
}
);
leftKerningGroup = quotedblleft;
rightKerningGroup = quotedblleft;
unicode = 2019;
},
{
glyphname = guillemetleft;
lastChange = "2019-09-10 19:27:05 +0000";
layers = (
{
layerId = "2BED5241-FEE2-452B-8B42-4A46EDD0955E";
paths = (
{
closed = 1;
nodes = (
"803 0 LINE",
"656.198 262 LINE",
"895.219 523 LINE",
"626.219 523 LINE",
"386.198 262 LINE",
"534 0 LINE"
);
},
{
closed = 1;
nodes = (
"475 0 LINE",
"328.198 262 LINE",
"567.219 523 LINE",
"298.219 523 LINE",
"58.198 262 LINE",
"206 0 LINE"
);
}
);
width = 813;
}
);
leftKerningGroup = guilsinglleft;
rightKerningGroup = guilsinglleft;
unicode = 00AB;
},
{
glyphname = guillemetright;
lastChange = "2019-09-10 19:27:05 +0000";
layers = (
{
layerId = "2BED5241-FEE2-452B-8B42-4A46EDD0955E";
paths = (
{
closed = 1;
nodes = (
"608 0 LINE",
"848.198 262 LINE",
"700.219 523 LINE",
"431.219 523 LINE",
"578.198 262 LINE",
"339 0 LINE"
);
},
{
closed = 1;
nodes = (
"279 0 LINE",
"519.198 262 LINE",
"371.219 523 LINE",
"102.219 523 LINE",
"249.198 262 LINE",
"10 0 LINE"
);
}
);
width = 814;
}
);
leftKerningGroup = guillemetright;
rightKerningGroup = guillemetright;
unicode = 00BB;
},
{
glyphname = guilsinglleft;
lastChange = "2019-09-10 19:27:05 +0000";
layers = (
{
layerId = "2BED5241-FEE2-452B-8B42-4A46EDD0955E";
paths = (
{
closed = 1;
nodes = (
"474 0 LINE",
"327.198 262 LINE",
"566.219 523 LINE",
"297.219 523 LINE",
"57.198 262 LINE",
"205 0 LINE"
);
}
);
width = 485;
}
);
leftKerningGroup = guillemotleft;
rightKerningGroup = guillemotleft;
unicode = 2039;
},
{
glyphname = guilsinglright;
lastChange = "2019-09-10 19:27:05 +0000";
layers = (
{
layerId = "2BED5241-FEE2-452B-8B42-4A46EDD0955E";
paths = (
{
closed = 1;
nodes = (
"280 0 LINE",
"520.198 262 LINE",
"372.219 523 LINE",
"103.219 523 LINE",
"250.198 262 LINE",
"11 0 LINE"
);
}
);
width = 485;
}
);
leftKerningGroup = guillemotright;
rightKerningGroup = guillemotright;
unicode = 203A;
},
{
glyphname = quotedbl;
lastChange = "2019-09-10 19:27:05 +0000";
layers = (
{
layerId = "2BED5241-FEE2-452B-8B42-4A46EDD0955E";
paths = (
{
closed = 1;
nodes = (
"554.173 432 LINE",
"652.953 737 LINE",
"425.953 737 LINE",
"418.173 432 LINE"
);
},
{
closed = 1;
nodes = (
"305.173 432 LINE",
"403.953 737 LINE",
"176.953 737 LINE",
"169.173 432 LINE"
);
}
);
width = 564;
}
);
leftKerningGroup = quotesingle;
rightKerningGroup = quotesingle;
unicode = 0022;
},
{
glyphname = quotesingle;
lastChange = "2019-09-10 19:27:05 +0000";
layers = (
{
layerId = "2BED5241-FEE2-452B-8B42-4A46EDD0955E";
paths = (
{
closed = 1;
nodes = (
"302.173 432 LINE",
"400.953 737 LINE",
"173.953 737 LINE",
"166.173 432 LINE"
);
}
);
width = 315;
}
);
leftKerningGroup = quotesingle;
rightKerningGroup = quotesingle;
unicode = 0027;
},
{
glyphname = "leftanglebracket-math";
lastChange = "2019-09-10 19:27:05 +0000";
layers = (
{
layerId = "2BED5241-FEE2-452B-8B42-4A46EDD0955E";
paths = (
{
closed = 1;
nodes = (
"503.837 -187 LINE",
"402.995 347 LINE",
"691.801 879 LINE",
"393.801 879 LINE",
"104.995 347 LINE",
"205.837 -187 LINE"
);
}
);
width = 553.81;
}
);
rightMetricsKey = braceleft;
unicode = 27E8;
},
{
glyphname = "rightanglebracket-math";
lastChange = "2019-09-10 19:27:05 +0000";
layers = (
{
layerId = "2BED5241-FEE2-452B-8B42-4A46EDD0955E";
paths = (
{
closed = 1;
nodes = (
"282.027 -187 LINE",
"571.185 347 LINE",
"469.991 879 LINE",
"171.991 879 LINE",
"273.185 347 LINE",
"-15.973 -187 LINE"
);
}
);
width = 554;
}
);
unicode = 27E9;
},
{
glyphname = .notdef;
lastChange = "2019-09-10 19:27:05 +0000";
layers = (
{
layerId = "2BED5241-FEE2-452B-8B42-4A46EDD0955E";
paths = (
{
closed = 1;
nodes = (
"173 -11 LINE",
"182.346 42 LINE",
"231.575 83 LINE",
"519.575 83 LINE",
"554.346 42 LINE",
"545 -11 LINE",
"681 -11 LINE",
"703.041 114 LINE",
"610.969 210 LINE",
"183.969 210 LINE",
"59.041 114 LINE",
"37 -11 LINE"
);
},
{
closed = 1;
nodes = (
"365.954 312 LINE",
"403.159 523 LINE",
"248.159 523 LINE",
"210.954 312 LINE"
);
},
{
closed = 1;
nodes = (
"619.954 312 LINE",
"657.159 523 LINE",
"502.159 523 LINE",
"464.954 312 LINE"
);
}
);
width = 722.04;
}
);
leftKerningGroup = .notdef;
rightKerningGroup = .notdef;
},
{
glyphname = cedi;
lastChange = "2019-09-10 19:27:05 +0000";
layers = (
{
layerId = "2BED5241-FEE2-452B-8B42-4A46EDD0955E";
paths = (
{
closed = 1;
nodes = (
"516.854 -110 LINE",
"536.25 0 LINE",
"649.25 0 LINE",
"777.001 95 LINE",
"815.264 312 LINE",
"517.264 312 LINE",
"489.228 153 LINE",
"356.228 153 LINE",
"432.225 584 LINE",
"563.225 584 LINE",
"535.718 428 LINE",
"832.718 428 LINE",
"870.452 642 LINE",
"776.203 737 LINE",
"666.203 737 LINE",
"685.599 847 LINE",
"411.599 847 LINE",
"392.203 737 LINE",
"280.203 737 LINE",
"152.452 642 LINE",
"56.001 95 LINE",
"150.25 0 LINE",
"262.25 0 LINE",
"242.854 -110 LINE"
);
}
);
width = 799.45;
}
);
unicode = 20B5;
},
{
glyphname = cent;
lastChange = "2019-09-10 19:27:05 +0000";
layers = (
{
layerId = "2BED5241-FEE2-452B-8B42-4A46EDD0955E";
paths = (
{
closed = 1;
nodes = (
"477.38 0 LINE",
"496.423 108 LINE",
"681.423 108 LINE",
"707.343 255 LINE",
"352.343 255 LINE",
"402.068 537 LINE",
"494.068 537 LINE",
"470.616 404 LINE",
"734.616 404 LINE",
"757.891 536 LINE",
"663.466 630 LINE",
"588.466 630 LINE",
"607.333 737 LINE",
"355.333 737 LINE",
"336.466 630 LINE",
"261.466 630 LINE",
"133.891 536 LINE",
"74.998 202 LINE",
"169.423 108 LINE",
"244.423 108 LINE",
"225.38 0 LINE"
);
}
);
width = 702.89;
}
);
unicode = 00A2;
},
{
glyphname = colonsign;
lastChange = "2019-09-10 19:27:05 +0000";
layers = (
{
anchors = (
{
name = botton;
position = "{396.25, 0}";
},
{
name = top;
position = "{529.203, 737}";
}
);
layerId = "2BED5241-FEE2-452B-8B42-4A46EDD0955E";
paths = (
{
closed = 1;
nodes = (
"332.448 -108.9 LINE",
"358.305 0 LINE",
"400.105 0 LINE",
"374.248 -108.9 LINE",
"550.848 -108.9 LINE",
"576.705 0 LINE",
"649.25 0 LINE",
"777.001 95 LINE",
"815.264 312 LINE",
"517.264 312 LINE",
"489.228 153 LINE",
"356.228 153 LINE",
"432.225 584 LINE",
"563.225 584 LINE",
"535.718 428 LINE",
"832.718 428 LINE",
"870.452 642 LINE",
"776.203 737 LINE",
"750.662 737 LINE",
"776.599 847 LINE",
"599.999 847 LINE",
"574.062 737 LINE",
"532.262 737 LINE",
"558.199 847 LINE",
"381.599 847 LINE",
"355.662 737 LINE",
"280.203 737 LINE",
"152.452 642 LINE",
"56.001 95 LINE",
"150.25 0 LINE",
"181.705 0 LINE",
"155.848 -108.9 LINE"
);
}
);
width = 799.45;
}
);
unicode = 20A1;
},
{
glyphname = currency;
lastChange = "2019-09-10 19:27:05 +0000";
layers = (
{
layerId = "2BED5241-FEE2-452B-8B42-4A46EDD0955E";
paths = (
{
closed = 1;
nodes = (
"201.764 133.403 LINE",
"221.13 109 LINE",
"498.13 109 LINE",
"526.102 133.403 LINE",
"570.192 81 LINE",
"667.004 165 LINE",
"622.686 217.664 LINE",
"650.581 242 LINE",
"671.74 362 LINE",
"652.511 386.007 LINE",
"715.318 439 LINE",
"647.776 521 LINE",
"585.71 469.412 LINE",
"566.016 494 LINE",
"289.016 494 LINE",
"260.65 469.412 LINE",
"216.776 521 LINE",
"121.318 439 LINE",
"164.745 386.276 LINE",
"136.74 362 LINE",
"115.581 242 LINE",
"135.107 217.396 LINE",
"73.004 165 LINE",
"139.192 81 LINE"
);
},
{
closed = 1;
nodes = (
"375.264 399 LINE",
"446.264 399 LINE",
"411.881 204 LINE",
"340.881 204 LINE"
);
}
);
width = 682.32;
}
);
unicode = 00A4;
},
{
glyphname = dollar;
lastChange = "2019-09-10 19:27:05 +0000";
layers = (
{
layerId = "2BED5241-FEE2-452B-8B42-4A46EDD0955E";
paths = (
{
closed = 1;
nodes = (
"491.604 -110 LINE",
"511 0 LINE",
"602 0 LINE",
"729.751 95 LINE",
"778.241 370 LINE",
"683.816 464 LINE",
"395.992 465 LINE",
"410.275 546 LINE",
"773.275 546 LINE",
"806.953 737 LINE",
"640.953 737 LINE",
"660.349 847 LINE",
"386.349 847 LINE",
"366.953 737 LINE",
"273.953 737 LINE",
"146.202 642 LINE",
"99.299 376 LINE",
"193.724 282 LINE",
"480.548 281 LINE",
"465.031 193 LINE",
"98.031 193 LINE",
"64 0 LINE",
"237 0 LINE",
"217.604 -110 LINE"
);
}
);
width = 745.95;
}
);
unicode = 0024;
},
{
glyphname = dong;
lastChange = "2019-09-10 19:27:05 +0000";
layers = (
{
layerId = "2BED5241-FEE2-452B-8B42-4A46EDD0955E";
paths = (
{
closed = 1;
nodes = (
"350.36 0 LINE",
"409.552 36.251 LINE",
"403.16 0 LINE",
"672.16 0 LINE",
"768.804 548.098 LINE",
"817.643 548.098 LINE",
"841.977 686.098 LINE",
"793.138 686.098 LINE",
"802.113 737 LINE",
"533.113 737 LINE",
"524.138 686.098 LINE",
"407.977 686.098 LINE",
"383.643 548.098 LINE",
"499.804 548.098 LINE",
"487.65 479.169 LINE",
"434.791 522.5 LINE",
"241.691 522.5 LINE",
"113.91 427.9 LINE",
"55.141 94.6 LINE",
"149.56 0 LINE"
);
},
{
closed = 1;
nodes = (
"635.999 -218.125 LINE",
"666.151 -47.125 LINE",
"30.151 -47.125 LINE",
"-0.001 -218.125 LINE"
);
},
{
closed = 1;
nodes = (
"381.422 425.7 LINE",
"417.722 425.7 LINE",
"470.294 380.734 LINE",
"425.913 129.038 LINE",
"353.971 89.1 LINE",
"322.071 89.1 LINE"
);
}
);
width = 721.98;
}
);
unicode = 20AB;
},
{
glyphname = euro;
lastChange = "2019-09-10 19:27:05 +0000";
layers = (
{
layerId = "2BED5241-FEE2-452B-8B42-4A46EDD0955E";
paths = (
{
closed = 1;
nodes = (
"731.21 0 LINE",
"858.961 95 LINE",
"897.224 312 LINE",
"588.224 312 LINE",
"556.309 131 LINE",
"434.309 131 LINE",
"452.999 237 LINE",
"503.999 237 LINE",
"525.335 358 LINE",
"474.335 358 LINE",
"481.917 401 LINE",
"562.917 401 LINE",
"584.429 523 LINE",
"503.429 523 LINE",
"518.064 606 LINE",
"638.064 606 LINE",
"606.678 428 LINE",
"914.678 428 LINE",
"952.412 642 LINE",
"858.163 737 LINE",
"340.163 737 LINE",
"212.412 642 LINE",
"191.429 523 LINE",
"131.429 523 LINE",
"109.917 401 LINE",
"169.917 401 LINE",
"162.335 358 LINE",
"102.335 358 LINE",
"80.999 237 LINE",
"140.999 237 LINE",
"115.961 95 LINE",
"210.21 0 LINE"
);
}
);
width = 881.41;
}
);
unicode = 20AC;
},
{
glyphname = florin;
lastChange = "2019-09-10 19:27:05 +0000";
layers = (
{
layerId = "2BED5241-FEE2-452B-8B42-4A46EDD0955E";
paths = (
{
closed = 1;
nodes = (
"363.001 -112 LINE",
"490.576 -18 LINE",
"564.986 404 LINE",
"656.986 404 LINE",
"677.969 523 LINE",
"585.969 523 LINE",
"602.543 617 LINE",
"718.544 617 LINE",
"739.703 737 LINE",
"462.703 737 LINE",
"334.952 642 LINE",
"313.969 523 LINE",
"270.969 523 LINE",
"249.986 404 LINE",
"292.986 404 LINE",
"223.161 8 LINE",
"107.161 8 LINE",
"86.001 -112 LINE"
);
}
);
width = 609.7;
}
);
unicode = 0192;
},
{
glyphname = franc;
lastChange = "2019-09-10 19:27:05 +0000";
layers = (
{
layerId = "2BED5241-FEE2-452B-8B42-4A46EDD0955E";
paths = (
{
closed = 1;
nodes = (
"350.01 0 LINE",
"362 68 LINE",
"452 68 LINE",
"476.333 206 LINE",
"386.333 206 LINE",
"395.679 259 LINE",
"692.679 259 LINE",
"723.712 435 LINE",
"426.712 435 LINE",
"445.227 540 LINE",
"790.227 540 LINE",
"824.963 737 LINE",
"184.963 737 LINE",
"91.333 206 LINE",
"42.333 206 LINE",
"18 68 LINE",
"67 68 LINE",
"55.01 0 LINE"
);
}
);
width = 727.96;
}
);
unicode = 20A3;
},
{
glyphname = guarani;
lastChange = "2019-09-10 19:27:05 +0000";
layers = (
{
layerId = "2BED5241-FEE2-452B-8B42-4A46EDD0955E";
paths = (
{
closed = 1;
nodes = (
"523.854 -110 LINE",
"552.874 54.58 LINE",
"590.76 82.29 LINE",
"576.25 0 LINE",
"772.25 0 LINE",
"843.486 404 LINE",
"519.486 404 LINE",
"492.508 251 LINE",
"589.412 251 LINE",
"456.228 153 LINE",
"356.228 153 LINE",
"432.225 584 LINE",
"577.225 584 LINE",
"558.182 476 LINE",
"856.005 475 LINE",
"885.452 642 LINE",
"791.203 737 LINE",
"673.203 737 LINE",
"692.599 847 LINE",
"418.599 847 LINE",
"399.203 737 LINE",
"280.203 737 LINE",
"152.452 642 LINE",
"56.001 95 LINE",
"150.25 0 LINE",
"269.25 0 LINE",
"249.854 -110 LINE"
);
}
);
width = 822.45;
}
);
unicode = 20B2;
},
{
glyphname = kip;
lastChange = "2019-09-10 19:27:05 +0000";
layers = (
{
layerId = "2BED5241-FEE2-452B-8B42-4A46EDD0955E";
paths = (
{
closed = 1;
nodes = (
"339.847 -0.3 LINE",
"395.336 314.391 LINE",
"504.847 -0.3 LINE",
"830.5 0 LINE",
"688.492 326.7 LINE",
"847.406 326.7 LINE",
"873.785 476.3 LINE",
"729.867 476.3 LINE",
"967.053 737 LINE",
"638.1 736.7 LINE",
"424.103 477.538 LINE",
"469.8 736.7 LINE",
"179.953 737 LINE",
"133.985 476.3 LINE",
"89.985 476.3 LINE",
"63.606 326.7 LINE",
"107.606 326.7 LINE",
"50 0 LINE"
);
}
);
width = 954.05;
}
);
unicode = 20AD;
},
{
glyphname = lira;
lastChange = "2019-09-10 19:27:05 +0000";
layers = (
{
layerId = "2BED5241-FEE2-452B-8B42-4A46EDD0955E";
paths = (
{
closed = 1;
nodes = (
"768 0 LINE",
"804.676 208 LINE",
"420.676 208 LINE",
"425.789 237 LINE",
"488.789 237 LINE",
"510.125 358 LINE",
"447.125 358 LINE",
"454.707 401 LINE",
"517.707 401 LINE",
"539.219 523 LINE",
"476.219 523 LINE",
"486.975 584 LINE",
"573.975 584 LINE",
"550.347 450 LINE",
"847.347 450 LINE",
"881.202 642 LINE",
"786.953 737 LINE",
"334.953 737 LINE",
"207.202 642 LINE",
"186.219 523 LINE",
"132.219 523 LINE",
"110.707 401 LINE",
"164.707 401 LINE",
"157.125 358 LINE",
"103.125 358 LINE",
"81.789 237 LINE",
"135.789 237 LINE",
"130.676 208 LINE",
"75.676 208 LINE",
"39 0 LINE"
);
}
);
width = 811.2;
}
);
unicode = 20A4;
},
{
glyphname = liraTurkish;
lastChange = "2019-09-10 19:27:05 +0000";
layers = (
{
layerId = "2BED5241-FEE2-452B-8B42-4A46EDD0955E";
paths = (
{
closed = 1;
nodes = (
"641.55 0 LINE",
"769.331 94.6 LINE",
"807.929 313.5 LINE",
"518.029 313.5 LINE",
"489.71 152.9 LINE",
"410.51 152.9 LINE",
"441.767 330.166 LINE",
"573.423 374.672 LINE",
"597.668 512.172 LINE",
"466.012 467.666 LINE",
"473.771 511.666 LINE",
"605.427 556.172 LINE",
"629.672 693.672 LINE",
"498.015 649.166 LINE",
"513.503 737 LINE",
"223.614 737 LINE",
"189.741 544.897 LINE",
"131.253 525.113 LINE",
"107.008 387.605 LINE",
"165.496 407.397 LINE",
"157.738 363.397 LINE",
"99.249 343.613 LINE",
"75.004 206.113 LINE",
"133.493 225.897 LINE",
"93.549 0 LINE"
);
}
);
width = 791.93;
}
);
unicode = 20BA;
},
{
glyphname = manat;
lastChange = "2019-09-10 19:27:05 +0000";
layers = (
{
background = {
paths = (
{
closed = 1;
nodes = (
"589 0 LINE",
"690 86 LINE",
"690 584 LINE",
"589 670 LINE",
"141 670 LINE",
"40 584 LINE",
"40 86 LINE",
"141 0 LINE"
);
},
{
closed = 1;
nodes = (
"299 531 LINE",
"431 531 LINE",
"431 139 LINE",
"299 139 LINE"
);
}
);
};
layerId = "2BED5241-FEE2-452B-8B42-4A46EDD0955E";
paths = (
{
closed = 1;
nodes = (
"329 0 LINE",
"412.579 474 LINE",
"491.579 474 LINE",
"408 0 LINE",
"672 0 LINE",
"755.579 474 LINE",
"834.579 474 LINE",
"751 0 LINE",
"1041 0 LINE",
"1134.806 532 LINE",
"1040.557 627 LINE",
"782.557 627 LINE",
"801.953 737 LINE",
"537.953 737 LINE",
"518.557 627 LINE",
"260.557 627 LINE",
"132.806 532 LINE",
"39 0 LINE"
);
}
);
width = 1079.81;
}
);
unicode = 20BC;
},
{
glyphname = naira;
lastChange = "2019-09-10 19:27:05 +0000";
layers = (
{
layerId = "2BED5241-FEE2-452B-8B42-4A46EDD0955E";
paths = (
{
closed = 1;
nodes = (
"361.02 0 LINE",
"427.459 376 LINE",
"523.16 0 LINE",
"785.02 0 LINE",
"826.809 237 LINE",
"886.399 237 LINE",
"907.735 358 LINE",
"848.145 358 LINE",
"855.903 402 LINE",
"915.493 402 LINE",
"936.829 523 LINE",
"877.239 523 LINE",
"914.973 737 LINE",
"653.563 737 LINE",
"590.125 377.226 LINE",
"492.113 737 LINE",
"229.563 737 LINE",
"191.829 523 LINE",
"131.429 523 LINE",
"110.093 402 LINE",
"170.493 402 LINE",
"162.735 358 LINE",
"102.335 358 LINE",
"80.999 237 LINE",
"141.399 237 LINE",
"99.61 0 LINE"
);
}
);
width = 883.83;
}
);
unicode = 20A6;
},
{
glyphname = peseta;
lastChange = "2019-09-10 19:27:05 +0000";
layers = (
{
layerId = "2BED5241-FEE2-452B-8B42-4A46EDD0955E";
paths = (
{
closed = 1;
nodes = (
"383.899 -0.19 LINE",
"420.047 204.81 LINE",
"728.647 204.81 LINE",
"856.221 298.81 LINE",
"875.88 410.3 LINE",
"935.527 410.3 LINE",
"956.863 531.3 LINE",
"897.216 531.3 LINE",
"916.701 641.81 LINE",
"822.452 736.81 LINE",
"223.952 736.81 LINE",
"187.716 531.3 LINE",
"127.263 531.3 LINE",
"105.927 410.3 LINE",
"166.38 410.3 LINE",
"93.999 -0.19 LINE"
);
},
{
closed = 1;
nodes = (
"486.874 583.81 LINE",
"627.474 583.81 LINE",
"587.448 356.81 LINE",
"446.848 356.81 LINE"
);
}
);
width = 880.86;
}
);
unicode = 20A7;
},
{
glyphname = peso;
lastChange = "2019-09-10 19:27:05 +0000";
layers = (
{
layerId = "2BED5241-FEE2-452B-8B42-4A46EDD0955E";
paths = (
{
closed = 1;
nodes = (
"386.66 0 LINE",
"422.807 205 LINE",
"731.407 205 LINE",
"858.982 299 LINE",
"864.095 328 LINE",
"923.595 328 LINE",
"944.931 449 LINE",
"885.431 449 LINE",
"893.189 493 LINE",
"952.689 493 LINE",
"974.025 614 LINE",
"914.525 614 LINE",
"919.462 642 LINE",
"825.213 737 LINE",
"226.713 737 LINE",
"205.025 614 LINE",
"144.425 614 LINE",
"123.089 493 LINE",
"183.689 493 LINE",
"175.931 449 LINE",
"115.331 449 LINE",
"93.995 328 LINE",
"154.595 328 LINE",
"96.76 0 LINE"
);
},
{
closed = 1;
nodes = (
"489.635 584 LINE",
"630.235 584 LINE",
"590.209 357 LINE",
"449.609 357 LINE"
);
}
);
width = 883.02;
}
);
unicode = 20B1;
},
{
glyphname = ruble;
lastChange = "2019-09-10 19:27:05 +0000";
layers = (
{
guideLines = (
{
position = "{590.19, 186}";
},
{
position = "{442.19, 325}";
}
);
layerId = "2BED5241-FEE2-452B-8B42-4A46EDD0955E";
paths = (
{
closed = 1;
nodes = (
"345.09 0 LINE",
"356.199 63 LINE",
"650.299 63 LINE",
"671.634 184 LINE",
"377.534 184 LINE",
"381.237 205 LINE",
"689.837 205 LINE",
"817.412 299 LINE",
"877.892 642 LINE",
"783.643 737 LINE",
"185.143 737 LINE",
"116.728 349 LINE",
"55.428 349 LINE",
"34.093 228 LINE",
"95.393 228 LINE",
"87.634 184 LINE",
"26.334 184 LINE",
"4.999 63 LINE",
"66.299 63 LINE",
"55.19 0 LINE"
);
},
{
closed = 1;
nodes = (
"448.065 584 LINE",
"588.665 584 LINE",
"548.639 357 LINE",
"408.039 357 LINE"
);
}
);
width = 781.89;
}
);
unicode = 20BD;
},
{
glyphname = rupeeIndian;
lastChange = "2019-09-10 19:27:05 +0000";
layers = (
{
layerId = "2BED5241-FEE2-452B-8B42-4A46EDD0955E";
paths = (
{
closed = 1;
nodes = (
"619.66 0 LINE",
"428.863 228 LINE",
"514.863 228 LINE",
"643.437 322 LINE",
"661.07 422 LINE",
"716.07 422 LINE",
"737.229 542 LINE",
"682.229 542 LINE",
"695.454 617 LINE",
"750.454 617 LINE",
"771.613 737 LINE",
"172.613 737 LINE",
"145.635 584 LINE",
"410.635 584 LINE",
"403.229 542 LINE",
"138.229 542 LINE",
"117.07 422 LINE",
"382.07 422 LINE",
"374.841 381 LINE",
"109.841 381 LINE",
"90 268.48 LINE",
"301.114 0 LINE"
);
}
);
width = 652.61;
}
);
unicode = 20B9;
},
{
glyphname = sterling;
lastChange = "2019-09-10 19:27:05 +0000";
layers = (
{
layerId = "2BED5241-FEE2-452B-8B42-4A46EDD0955E";
paths = (
{
closed = 1;
nodes = (
"812 0 LINE",
"846.031 193 LINE",
"467.031 193 LINE",
"485.722 299 LINE",
"690.722 299 LINE",
"714.879 436 LINE",
"509.879 436 LINE",
"539.854 606 LINE",
"637.854 606 LINE",
"623.219 523 LINE",
"910.219 523 LINE",
"931.202 642 LINE",
"836.953 737 LINE",
"362.953 737 LINE",
"235.202 642 LINE",
"198.879 436 LINE",
"115.879 436 LINE",
"91.722 299 LINE",
"174.722 299 LINE",
"156.031 193 LINE",
"73.031 193 LINE",
"39 0 LINE"
);
}
);
width = 862.2;
}
);
unicode = 00A3;
},
{
glyphname = won;
lastChange = "2019-09-10 19:27:05 +0000";
layers = (
{
guideLines = (
{
position = "{1171.573, 403.518}";
}
);
layerId = "2BED5241-FEE2-452B-8B42-4A46EDD0955E";
paths = (
{
closed = 1;
nodes = (
"559.134 -0.993 LINE",
"658.286 170.007 LINE",
"695.134 -0.993 LINE",
"1006.134 -0.993 LINE",
"1134.243 260.8 LINE",
"1261.096 260.8 LINE",
"1282.432 381.8 LINE",
"1193.455 381.8 LINE",
"1214.986 425.8 LINE",
"1290.19 425.8 LINE",
"1311.526 546.8 LINE",
"1251.725 546.8 LINE",
"1285.087 736.007 LINE",
"994.087 736.007 LINE",
"857.931 185.007 LINE",
"815.931 185.007 LINE",
"874.087 736.007 LINE",
"640.087 736.007 LINE",
"503.931 185.007 LINE",
"462.931 185.007 LINE",
"521.087 736.007 LINE",
"229.087 736.007 LINE",
"195.725 546.8 LINE",
"135.426 546.8 LINE",
"114.09 425.8 LINE",
"189.895 425.8 LINE",
"196.003 381.8 LINE",
"106.332 381.8 LINE",
"84.996 260.8 LINE",
"212.797 260.8 LINE",
"249.134 -0.993 LINE"
);
}
);
width = 1254.53;
}
);
unicode = 20A9;
},
{
glyphname = yen;
lastChange = "2019-09-10 19:27:05 +0000";
layers = (
{
layerId = "2BED5241-FEE2-452B-8B42-4A46EDD0955E";
paths = (
{
closed = 1;
nodes = (
"531.36 0 LINE",
"542.998 66 LINE",
"706.998 66 LINE",
"725.865 173 LINE",
"561.865 173 LINE",
"568.389 210 LINE",
"732.389 210 LINE",
"751.256 317 LINE",
"638.923 317 LINE",
"730.246 385 LINE",
"914.198 737 LINE",
"606.848 737 LINE",
"483.652 427 LINE",
"439.652 427 LINE",
"427.649 737 LINE",
"151.666 737 LINE",
"178.246 385 LINE",
"246.291 317 LINE",
"134.256 317 LINE",
"115.389 210 LINE",
"278.389 210 LINE",
"271.865 173 LINE",
"108.865 173 LINE",
"89.998 66 LINE",
"252.998 66 LINE",
"241.36 0 LINE"
);
}
);
width = 801.2;
}
);
unicode = 00A5;
},
{
glyphname = bulletoperator;
lastChange = "2019-09-10 19:27:05 +0000";
layers = (
{
layerId = "2BED5241-FEE2-452B-8B42-4A46EDD0955E";
paths = (
{
closed = 1;
nodes = (
"336.995 271 LINE",
"369.968 458 LINE",
"141.968 458 LINE",
"108.995 271 LINE"
);
}
);
width = 367.97;
}
);
unicode = 2219;
},
{
glyphname = commercialMinusSign;
lastChange = "2019-09-10 19:27:05 +0000";
layers = (
{
layerId = "2BED5241-FEE2-452B-8B42-4A46EDD0955E";
paths = (
{
closed = 1;
nodes = (
"729.338 660.434 LINE",
"589.835 752.787 LINE",
"90.002 76.546 LINE",
"228.717 -15.561 LINE"
);
},
{
closed = 1;
nodes = (
"644.47 0 LINE",
"678.854 195 LINE",
"447.854 195 LINE",
"413.47 0 LINE"
);
},
{
closed = 1;
nodes = (
"371.039 542 LINE",
"405.423 737 LINE",
"174.423 737 LINE",
"140.039 542 LINE"
);
}
);
width = 689.34;
}
);
unicode = 2052;
},
{
glyphname = divisionslash;
lastChange = "2019-09-10 19:27:05 +0000";
layers = (
{
layerId = "2BED5241-FEE2-452B-8B42-4A46EDD0955E";
paths = (
{
closed = 1;
nodes = (
"796.375 730.644 LINE",
"691.559 805.903 LINE",
"45 9.285 LINE",
"148.588 -68.973 LINE"
);
}
);
width = 711.37;
}
);
unicode = 2215;
},
{
glyphname = plus;
lastChange = "2019-09-10 19:27:05 +0000";
layers = (
{
layerId = "2BED5241-FEE2-452B-8B42-4A46EDD0955E";
paths = (
{
closed = 1;
nodes = (
"391.373 149 LINE",
"415.001 283 LINE",
"554.001 283 LINE",
"584.152 454 LINE",
"445.152 454 LINE",
"468.957 589 LINE",
"287.957 589 LINE",
"264.152 454 LINE",
"124.152 454 LINE",
"94.001 283 LINE",
"234.001 283 LINE",
"210.373 149 LINE"
);
}
);
width = 548.15;
}
);
unicode = 002B;
},
{
glyphname = minus;
lastChange = "2019-09-10 19:27:05 +0000";
layers = (
{
layerId = "2BED5241-FEE2-452B-8B42-4A46EDD0955E";
paths = (
{
closed = 1;
nodes = (
"544.001 283 LINE",
"574.152 454 LINE",
"124.152 454 LINE",
"94.001 283 LINE"
);
}
);
width = 538.15;
}
);
unicode = 2212;
},
{
glyphname = multiply;
lastChange = "2019-09-10 19:27:05 +0000";
layers = (
{
layerId = "2BED5241-FEE2-452B-8B42-4A46EDD0955E";
paths = (
{
closed = 1;
nodes = (
"664.766 187.589 LINE",
"528.096 353.607 LINE",
"736.993 530.743 LINE",
"626.148 663.99 LINE",
"418.247 486.529 LINE",
"280.48 654.053 LINE",
"148.703 542.028 LINE",
"286.739 374.202 LINE",
"85.995 202.878 LINE",
"194.746 70.846 LINE",
"395.786 241.597 LINE",
"532.338 75.011 LINE"
);
}
);
width = 686.99;
}
);
unicode = 00D7;
},
{
glyphname = divide;
lastChange = "2019-09-10 19:27:05 +0000";
layers = (
{
layerId = "2BED5241-FEE2-452B-8B42-4A46EDD0955E";
paths = (
{
closed = 1;
nodes = (
"632.001 283 LINE",
"662.152 454 LINE",
"124.152 454 LINE",
"94.001 283 LINE"
);
},
{
closed = 1;
nodes = (
"419.617 88 LINE",
"443.245 222 LINE",
"262.245 222 LINE",
"238.617 88 LINE"
);
},
{
closed = 1;
nodes = (
"494.908 515 LINE",
"518.536 649 LINE",
"337.536 649 LINE",
"313.908 515 LINE"
);
}
);
width = 626.15;
}
);
unicode = 00F7;
},
{
glyphname = equal;
lastChange = "2019-09-10 19:27:05 +0000";
layers = (
{
layerId = "2BED5241-FEE2-452B-8B42-4A46EDD0955E";
paths = (
{
closed = 1;
nodes = (
"653.022 405 LINE",
"683.174 576 LINE",
"145.174 576 LINE",
"115.022 405 LINE"
);
},
{
closed = 1;
nodes = (
"609.999 161 LINE",
"640.151 332 LINE",
"102.151 332 LINE",
"71.999 161 LINE"
);
}
);
width = 616.17;
}
);
unicode = 003D;
},
{
glyphname = notequal;
lastChange = "2019-09-10 19:27:05 +0000";
layers = (
{
layerId = "2BED5241-FEE2-452B-8B42-4A46EDD0955E";
paths = (
{
closed = 1;
nodes = (
"288.426 161 LINE",
"609.999 161 LINE",
"640.151 332 LINE",
"433.884 332 LINE",
"495.981 405 LINE",
"653.022 405 LINE",
"683.174 576 LINE",
"641.439 576 LINE",
"683.698 625.68 LINE",
"578.387 707.139 LINE",
"466.803 576 LINE",
"145.174 576 LINE",
"115.022 405 LINE",
"321.302 405 LINE",
"259.188 332 LINE",
"102.151 332 LINE",
"71.999 161 LINE",
"113.688 161 LINE",
"71.999 112.005 LINE",
"177.446 30.532 LINE"
);
}
);
width = 624.7;
}
);
unicode = 2260;
},
{
glyphname = greater;
lastChange = "2019-09-10 19:27:05 +0000";
layers = (
{
layerId = "2BED5241-FEE2-452B-8B42-4A46EDD0955E";
paths = (
{
closed = 1;
nodes = (
"499.738 368 LINE",
"278.17 637 LINE",
"134.658 515 LINE",
"255.738 368 LINE",
"82.995 222 LINE",
"183.483 100 LINE"
);
}
);
width = 478.74;
}
);
unicode = 003E;
},
{
glyphname = less;
lastChange = "2019-09-10 19:27:05 +0000";
layers = (
{
layerId = "2BED5241-FEE2-452B-8B42-4A46EDD0955E";
paths = (
{
closed = 1;
nodes = (
"474.075 222 LINE",
"352.995 369 LINE",
"525.738 515 LINE",
"425.25 637 LINE",
"108.995 369 LINE",
"330.563 100 LINE"
);
}
);
width = 478.74;
}
);
unicode = 003C;
},
{
glyphname = greaterequal;
lastChange = "2019-09-10 19:27:05 +0000";
layers = (
{
layerId = "2BED5241-FEE2-452B-8B42-4A46EDD0955E";
paths = (
{
closed = 1;
nodes = (
"440.501 -21.6 LINE",
"470.759 150 LINE",
"246.946 150 LINE",
"504.198 368 LINE",
"282.63 637 LINE",
"139.118 515 LINE",
"260.198 368 LINE",
"87.455 222 LINE",
"146.759 150 LINE",
"70.259 150 LINE",
"40.001 -21.6 LINE"
);
}
);
width = 483.2;
}
);
unicode = 2265;
},
{
glyphname = lessequal;
lastChange = "2019-09-10 19:27:05 +0000";
layers = (
{
layerId = "2BED5241-FEE2-452B-8B42-4A46EDD0955E";
paths = (
{
closed = 1;
nodes = (
"440.501 -21.6 LINE",
"470.759 150 LINE",
"393.609 150 LINE",
"478.775 222.4 LINE",
"357.519 368.4 LINE",
"530.439 515.4 LINE",
"429.951 637.4 LINE",
"113.519 368.4 LINE",
"294.224 150 LINE",
"70.259 150 LINE",
"40.001 -21.6 LINE"
);
}
);
width = 483.44;
}
);
unicode = 2264;
},
{
glyphname = plusminus;
lastChange = "2019-09-10 19:27:05 +0000";
layers = (
{
layerId = "2BED5241-FEE2-452B-8B42-4A46EDD0955E";
paths = (
{
closed = 1;
nodes = (
"395.971 204 LINE",
"419.599 338 LINE",
"558.599 338 LINE",
"588.75 509 LINE",
"449.75 509 LINE",
"473.555 644 LINE",
"297.555 644 LINE",
"273.75 509 LINE",
"133.75 509 LINE",
"103.599 338 LINE",
"243.599 338 LINE",
"219.971 204 LINE"
);
},
{
closed = 1;
nodes = (
"499 0 LINE",
"529.152 171 LINE",
"74.152 171 LINE",
"44 0 LINE"
);
}
);
width = 542.75;
}
);
unicode = 00B1;
},
{
glyphname = approxequal;
lastChange = "2019-09-10 19:27:05 +0000";
layers = (
{
layerId = "2BED5241-FEE2-452B-8B42-4A46EDD0955E";
paths = (
{
closed = 1;
nodes = (
"680.088 398 LINE",
"777.076 483 LINE",
"792.358 564 LINE",
"559.358 564 LINE",
"550.013 511 LINE",
"506.013 511 LINE",
"516.24 569 LINE",
"228.24 569 LINE",
"130.252 484 LINE",
"114.97 403 LINE",
"347.97 403 LINE",
"357.139 455 LINE",
"401.139 455 LINE",
"391.088 398 LINE"
);
},
{
closed = 1;
nodes = (
"641.12 177 LINE",
"738.108 262 LINE",
"753.39 343 LINE",
"520.39 343 LINE",
"511.045 290 LINE",
"467.045 290 LINE",
"477.272 348 LINE",
"189.272 348 LINE",
"91.284 263 LINE",
"76.002 182 LINE",
"309.002 182 LINE",
"318.171 234 LINE",
"362.171 234 LINE",
"352.12 177 LINE"
);
}
);
width = 737.36;
}
);
unicode = 2248;
},
{
glyphname = asciitilde;
lastChange = "2019-09-10 19:27:05 +0000";
layers = (
{
layerId = "2BED5241-FEE2-452B-8B42-4A46EDD0955E";
paths = (
{
closed = 1;
nodes = (
"661.122 288 LINE",
"758.11 373 LINE",
"773.392 454 LINE",
"540.392 454 LINE",
"531.047 401 LINE",
"487.047 401 LINE",
"497.274 459 LINE",
"209.274 459 LINE",
"111.286 374 LINE",
"96.004 293 LINE",
"329.004 293 LINE",
"338.173 345 LINE",
"382.173 345 LINE",
"372.122 288 LINE"
);
}
);
width = 737.39;
}
);
leftKerningGroup = asciitilde;
rightKerningGroup = asciitilde;
unicode = 007E;
},
{
glyphname = logicalnot;
lastChange = "2019-09-10 19:27:05 +0000";
layers = (
{
layerId = "2BED5241-FEE2-452B-8B42-4A46EDD0955E";
paths = (
{
closed = 1;
nodes = (
"597.6 275 LINE",
"641.329 523 LINE",
"136.329 523 LINE",
"106.001 351 LINE",
"434.001 351 LINE",
"420.6 275 LINE"
);
}
);
width = 593.33;
}
);
unicode = 00AC;
},
{
glyphname = asciicircum;
lastChange = "2019-09-10 19:27:05 +0000";
layers = (
{
layerId = "2BED5241-FEE2-452B-8B42-4A46EDD0955E";
paths = (
{
closed = 1;
nodes = (
"320.059 523 LINE",
"459.513 639 LINE",
"556.059 523 LINE",
"731.312 523 LINE",
"598.804 737 LINE",
"317.514 737 LINE",
"127 523 LINE"
);
}
);
width = 691.31;
}
);
leftKerningGroup = asciicircum;
rightKerningGroup = asciicircum;
unicode = 005E;
},
{
glyphname = micro;
lastChange = "2019-09-10 19:27:05 +0000";
layers = (
{
layerId = "2BED5241-FEE2-452B-8B42-4A46EDD0955E";
paths = (
{
closed = 1;
nodes = (
"275.004 -187.074 LINE",
"307.99 0 LINE",
"335.49 0 LINE",
"408.321 44.98 LINE",
"400.39 0 LINE",
"668.29 0 LINE",
"760.421 522.5 LINE",
"492.521 522.5 LINE",
"425.549 142.686 LINE",
"355.858 96.8 LINE",
"325.058 96.8 LINE",
"399.021 522.5 LINE",
"131.121 522.5 LINE",
"6.004 -187.074 LINE"
);
}
);
width = 712.42;
}
);
unicode = 00B5;
},
{
glyphname = percent;
lastChange = "2019-09-10 19:27:05 +0000";
layers = (
{
layerId = "2BED5241-FEE2-452B-8B42-4A46EDD0955E";
paths = (
{
closed = 1;
nodes = (
"1066.878 606.455 LINE",
"967.208 739.635 LINE",
"159.291 132.601 LINE",
"258.183 -1.798 LINE"
);
},
{
closed = 1;
nodes = (
"393.724 350 LINE",
"525.004 448 LINE",
"558.683 639 LINE",
"461.963 737 LINE",
"287.963 737 LINE",
"156.683 639 LINE",
"123.004 448 LINE",
"219.724 350 LINE"
);
},
{
closed = 1;
nodes = (
"308.985 584 LINE",
"386.985 584 LINE",
"372.702 503 LINE",
"294.702 503 LINE"
);
},
{
closed = 1;
nodes = (
"937.01 0 LINE",
"1068.29 98 LINE",
"1101.968 289 LINE",
"1005.249 387 LINE",
"831.249 387 LINE",
"700.968 289 LINE",
"667.29 98 LINE",
"763.01 0 LINE"
);
},
{
closed = 1;
nodes = (
"852.271 234 LINE",
"931.271 234 LINE",
"916.988 153 LINE",
"837.988 153 LINE"
);
}
);
width = 1094.97;
}
);
unicode = 0025;
},
{
glyphname = perthousand;
lastChange = "2019-09-10 19:27:05 +0000";
layers = (
{
layerId = "2BED5241-FEE2-452B-8B42-4A46EDD0955E";
paths = (
{
closed = 1;
nodes = (
"1066.878 606.455 LINE",
"967.208 739.635 LINE",
"159.291 132.601 LINE",
"258.183 -1.798 LINE"
);
},
{
closed = 1;
nodes = (
"393.724 350 LINE",
"525.004 448 LINE",
"558.683 639 LINE",
"461.963 737 LINE",
"287.963 737 LINE",
"156.683 639 LINE",
"123.004 448 LINE",
"219.724 350 LINE"
);
},
{
closed = 1;
nodes = (
"308.985 584 LINE",
"386.985 584 LINE",
"372.702 503 LINE",
"294.702 503 LINE"
);
},
{
closed = 1;
nodes = (
"937.01 0 LINE",
"1068.29 98 LINE",
"1101.968 289 LINE",
"1005.249 387 LINE",
"831.249 387 LINE",
"700.968 289 LINE",
"667.29 98 LINE",
"763.01 0 LINE"
);
},
{
closed = 1;
nodes = (
"852.271 234 LINE",
"931.271 234 LINE",
"916.988 153 LINE",
"837.988 153 LINE"
);
},
{
closed = 1;
nodes = (
"1373.884 0 LINE",
"1505.164 98 LINE",
"1538.842 289 LINE",
"1442.123 387 LINE",
"1268.123 387 LINE",
"1137.842 289 LINE",
"1104.164 98 LINE",
"1199.884 0 LINE"
);
},
{
closed = 1;
nodes = (
"1289.145 234 LINE",
"1368.145 234 LINE",
"1353.862 153 LINE",
"1274.862 153 LINE"
);
}
);
width = 1531.84;
}
);
leftMetricsKey = percent;
unicode = 2030;
},
{
glyphname = lozenge;
lastChange = "2019-09-10 19:27:05 +0000";
layers = (
{
layerId = "2BED5241-FEE2-452B-8B42-4A46EDD0955E";
paths = (
{
closed = 1;
nodes = (
"501.68 0 LINE",
"807.239 368.518 LINE",
"631.633 737 LINE",
"409.633 737 LINE",
"102.998 368.518 LINE",
"279.68 0 LINE"
);
},
{
closed = 1;
nodes = (
"369.568 368 LINE",
"478.667 499 LINE",
"541.568 368 LINE",
"432.646 238 LINE"
);
}
);
width = 779.24;
}
);
leftKerningGroup = lozenge;
rightKerningGroup = lozenge;
unicode = 25CA;
},
{
glyphname = at;
lastChange = "2019-09-10 19:27:05 +0000";
layers = (
{
hints = (
{
horizontal = 1;
place = "{-187, 141}";
type = Stem;
},
{
horizontal = 1;
place = "{17, 97}";
type = Stem;
},
{
horizontal = 1;
place = "{425, 98}";
type = Stem;
},
{
horizontal = 1;
place = "{585, 152}";
type = Stem;
},
{
place = "{17.647, 25.882}";
type = Stem;
},
{
place = "{67.059, 25.882}";
type = Stem;
},
{
place = "{137.412, 25.882}";
type = Stem;
},
{
place = "{190.588, 25.882}";
type = Stem;
}
);
layerId = "2BED5241-FEE2-452B-8B42-4A46EDD0955E";
paths = (
{
closed = 1;
nodes = (
"1192.967 -187 LINE",
"1217.829 -46 LINE",
"401.829 -46 LINE",
"286.283 70 LINE",
"356.637 469 LINE",
"513.091 585 LINE",
"1058.915 584 LINE",
"1115.217 529 LINE",
"1047.86 147 LINE",
"981.86 147 LINE",
"1048.159 523 LINE",
"779.159 523 LINE",
"771.577 480 LINE",
"723.159 523 LINE",
"539.159 523 LINE",
"411.408 428 LINE",
"355.512 111 LINE",
"449.938 17 LINE",
"636.938 17 LINE",
"701.696 61 LINE",
"750.938 17 LINE",
"1148.938 17 LINE",
"1276.512 111 LINE",
"1357.446 570 LINE",
"1191.893 737 LINE",
"395.893 737 LINE",
"135.038 545 LINE",
"39.998 6 LINE",
"232.967 -187 LINE"
);
},
{
closed = 1;
nodes = (
"679.642 435 LINE",
"753.063 375 LINE",
"715.858 164 LINE",
"621.278 104 LINE"
);
}
);
width = 1296.45;
}
);
leftKerningGroup = at;
rightKerningGroup = at;
unicode = 0040;
},
{
glyphname = ampersand;
lastChange = "2019-09-10 19:27:05 +0000";
layers = (
{
layerId = "2BED5241-FEE2-452B-8B42-4A46EDD0955E";
paths = (
{
closed = 1;
nodes = (
"412.573 206 LINE",
"499.858 270 LINE",
"560.576 189 LINE",
"471.409 120 LINE",
"397.409 120 LINE"
);
},
{
closed = 1;
nodes = (
"495.633 609 LINE",
"578.633 609 LINE",
"558.885 497 LINE",
"475.885 497 LINE"
);
},
{
closed = 1;
nodes = (
"942.409 120 LINE",
"893.928 191 LINE",
"965.979 248 LINE",
"857.426 415 LINE",
"770.612 348 LINE",
"719.602 416 LINE",
"841.295 505 LINE",
"865.452 642 LINE",
"771.203 737 LINE",
"331.203 737 LINE",
"203.452 642 LINE",
"177.179 493 LINE",
"274.899 395 LINE",
"96.448 262 LINE",
"67.001 95 LINE",
"161.25 0 LINE",
"636.25 0 LINE",
"703.419 52 LINE",
"752.076 -18 LINE"
);
}
);
width = 960.98;
}
);
leftKerningGroup = ampersand;
rightKerningGroup = ampersand;
unicode = 0026;
},
{
glyphname = paragraph;
lastChange = "2019-09-10 19:27:05 +0000";
layers = (
{
layerId = "2BED5241-FEE2-452B-8B42-4A46EDD0955E";
paths = (
{
closed = 1;
nodes = (
"579.355 -124 LINE",
"706.135 595 LINE",
"761.135 595 LINE",
"634.355 -124 LINE",
"895.355 -124 LINE",
"1022.135 595 LINE",
"1102.135 595 LINE",
"1126.997 736 LINE",
"308.997 736 LINE",
"145.016 600 LINE",
"95.997 322 LINE",
"212.017 186 LINE",
"372.017 186 LINE",
"317.355 -124 LINE"
);
}
);
width = 1036;
}
);
leftKerningGroup = paragraph;
rightKerningGroup = paragraph;
unicode = 00B6;
},
{
glyphname = section;
lastChange = "2019-09-10 19:27:05 +0000";
layers = (
{
layerId = "2BED5241-FEE2-452B-8B42-4A46EDD0955E";
paths = (
{
closed = 1;
nodes = (
"555.002 -66 LINE",
"681.93 30 LINE",
"700.62 136 LINE",
"642.847 194 LINE",
"721.251 253 LINE",
"747.7 403 LINE",
"624.564 527 LINE",
"452.564 527 LINE",
"464.731 596 LINE",
"742.731 596 LINE",
"767.593 737 LINE",
"321.593 737 LINE",
"195.666 641 LINE",
"177.151 536 LINE",
"235.101 479 LINE",
"156.697 420 LINE",
"129.543 266 LINE",
"253.207 145 LINE",
"442.207 145 LINE",
"429.688 74 LINE",
"116.865 75 LINE",
"92.002 -66 LINE"
);
},
{
closed = 1;
nodes = (
"361.644 380 LINE",
"530.644 380 LINE",
"515.48 294 LINE",
"346.48 294 LINE"
);
}
);
width = 759.59;
}
);
leftKerningGroup = section;
rightKerningGroup = section;
unicode = 00A7;
},
{
glyphname = copyright;
lastChange = "2019-09-10 19:27:05 +0000";
layers = (
{
layerId = "2BED5241-FEE2-452B-8B42-4A46EDD0955E";
paths = (
{
closed = 1;
nodes = (
"986.148 -152 LINE",
"1246.003 40 LINE",
"1335.225 546 LINE",
"1142.903 737 LINE",
"396.903 737 LINE",
"136.225 546 LINE",
"47.003 40 LINE",
"240.148 -152 LINE"
);
},
{
closed = 1;
nodes = (
"295.404 116 LINE",
"357.824 470 LINE",
"514.101 585 LINE",
"971.101 585 LINE",
"1086.824 470 LINE",
"1024.404 116 LINE",
"867.95 0 LINE",
"410.95 0 LINE"
);
},
{
closed = 1;
nodes = (
"841.766 50 LINE",
"972.694 146 LINE",
"992.266 257 LINE",
"731.266 257 LINE",
"711.165 143 LINE",
"618.165 143 LINE",
"670.887 442 LINE",
"763.887 442 LINE",
"744.491 332 LINE",
"1005.491 332 LINE",
"1024.358 439 LINE",
"927.461 536 LINE",
"541.461 536 LINE",
"409.358 439 LINE",
"357.694 146 LINE",
"455.766 50 LINE"
);
}
);
width = 1278.23;
}
);
leftKerningGroup = copyright;
rightKerningGroup = copyright;
unicode = 00A9;
},
{
glyphname = registered;
lastChange = "2019-09-10 19:27:05 +0000";
layers = (
{
layerId = "2BED5241-FEE2-452B-8B42-4A46EDD0955E";
paths = (
{
closed = 1;
nodes = (
"990.148 -152 LINE",
"1250.003 40 LINE",
"1339.225 546 LINE",
"1146.903 737 LINE",
"400.903 737 LINE",
"140.225 546 LINE",
"51.003 40 LINE",
"244.148 -152 LINE"
);
},
{
closed = 1;
nodes = (
"299.404 116 LINE",
"361.824 470 LINE",
"426.111 517 LINE",
"350.643 89 LINE",
"612.643 89 LINE",
"638.034 233 LINE",
"720.034 233 LINE",
"729.643 89 LINE",
"979.643 89 LINE",
"952.735 271 LINE",
"1006.788 311 LINE",
"1029.358 439 LINE",
"932.461 536 LINE",
"451.461 536 LINE",
"518.101 585 LINE",
"975.101 585 LINE",
"1090.824 470 LINE",
"1028.404 116 LINE",
"871.95 0 LINE",
"414.95 0 LINE"
);
},
{
closed = 1;
nodes = (
"674.887 442 LINE",
"751.887 442 LINE",
"730.022 318 LINE",
"653.022 318 LINE"
);
}
);
width = 1287.23;
}
);
leftKerningGroup = registered;
rightKerningGroup = registered;
unicode = 00AE;
},
{
glyphname = trademark;
lastChange = "2019-09-10 19:27:05 +0000";
layers = (
{
layerId = "2BED5241-FEE2-452B-8B42-4A46EDD0955E";
paths = (
{
closed = 1;
nodes = (
"733.808 289 LINE",
"765.9 471 LINE",
"790.098 319 LINE",
"851.098 319 LINE",
"929.9 471 LINE",
"897.808 289 LINE",
"1100.808 289 LINE",
"1179.803 737 LINE",
"945.803 737 LINE",
"864.946 562 LINE",
"844.803 737 LINE",
"609.803 737 LINE",
"530.808 289 LINE"
);
},
{
closed = 1;
nodes = (
"379.808 289 LINE",
"434.999 602 LINE",
"548.999 602 LINE",
"572.803 737 LINE",
"140.803 737 LINE",
"116.999 602 LINE",
"231.999 602 LINE",
"176.808 289 LINE"
);
}
);
width = 1099.8;
}
);
leftKerningGroup = trademark;
rightKerningGroup = trademark;
unicode = 2122;
},
{
glyphname = degree;
lastChange = "2019-09-10 19:27:05 +0000";
layers = (
{
hints = (
{
horizontal = 1;
origin = "{0, 6}";
target = "{1, 0}";
type = Stem;
},
{
horizontal = 1;
origin = "{1, 0}";
target = "{0, 4}";
type = Stem;
},
{
place = "{27.647, 135.294}";
type = Stem;
},
{
place = "{234.235, 135.294}";
type = Stem;
}
);
layerId = "2BED5241-FEE2-452B-8B42-4A46EDD0955E";
paths = (
{
closed = 1;
nodes = (
"370.252 356 LINE",
"498.003 451 LINE",
"531.682 642 LINE",
"437.433 737 LINE",
"273.433 737 LINE",
"145.682 642 LINE",
"112.003 451 LINE",
"206.252 356 LINE"
);
},
{
closed = 1;
nodes = (
"289.808 586 LINE",
"367.808 586 LINE",
"353.878 507 LINE",
"275.878 507 LINE"
);
}
);
width = 451.68;
}
);
leftKerningGroup = degree;
rightKerningGroup = degree;
unicode = 00B0;
},
{
glyphname = minute;
lastChange = "2019-09-10 19:27:05 +0000";
layers = (
{
layerId = "2BED5241-FEE2-452B-8B42-4A46EDD0955E";
paths = (
{
closed = 1;
nodes = (
"286.003 432 LINE",
"476.783 737 LINE",
"223.783 737 LINE",
"120.003 432 LINE"
);
}
);
width = 390.78;
}
);
unicode = 2032;
},
{
glyphname = second;
lastChange = "2019-09-10 19:27:05 +0000";
layers = (
{
layerId = "2BED5241-FEE2-452B-8B42-4A46EDD0955E";
paths = (
{
closed = 1;
nodes = (
"565.003 432 LINE",
"755.783 737 LINE",
"502.783 737 LINE",
"399.003 432 LINE"
);
},
{
closed = 1;
nodes = (
"286.003 432 LINE",
"476.783 737 LINE",
"223.783 737 LINE",
"120.003 432 LINE"
);
}
);
width = 649.78;
}
);
unicode = 2033;
},
{
glyphname = bar;
lastChange = "2019-09-10 19:27:05 +0000";
layers = (
{
layerId = "2BED5241-FEE2-452B-8B42-4A46EDD0955E";
paths = (
{
closed = 1;
nodes = (
"290.001 -139 LINE",
"457.335 810 LINE",
"192.335 810 LINE",
"25.001 -139 LINE"
);
}
);
width = 364.33;
}
);
leftKerningGroup = bar;
rightKerningGroup = bar;
unicode = 007C;
},
{
glyphname = brokenbar;
lastChange = "2019-09-10 19:27:05 +0000";
layers = (
{
layerId = "2BED5241-FEE2-452B-8B42-4A46EDD0955E";
paths = (
{
closed = 1;
nodes = (
"394.033 451 LINE",
"457.335 810 LINE",
"192.335 810 LINE",
"129.033 451 LINE"
);
},
{
closed = 1;
nodes = (
"290.001 -139 LINE",
"353.302 220 LINE",
"88.302 220 LINE",
"25.001 -139 LINE"
);
}
);
width = 364.33;
}
);
leftKerningGroup = brokenbar;
rightKerningGroup = brokenbar;
unicode = 00A6;
},
{
glyphname = dagger;
lastChange = "2019-09-10 19:27:05 +0000";
layers = (
{
layerId = "2BED5241-FEE2-452B-8B42-4A46EDD0955E";
paths = (
{
closed = 1;
nodes = (
"417.237 -40 LINE",
"486.004 350 LINE",
"632.004 350 LINE",
"660.217 510 LINE",
"514.217 510 LINE",
"544.545 682 LINE",
"283.545 682 LINE",
"253.217 510 LINE",
"107.217 510 LINE",
"79.004 350 LINE",
"225.004 350 LINE",
"156.237 -40 LINE"
);
}
);
width = 587.22;
}
);
leftKerningGroup = dagger;
rightKerningGroup = dagger;
unicode = 2020;
},
{
glyphname = daggerdbl;
lastChange = "2019-09-10 19:27:05 +0000";
layers = (
{
layerId = "2BED5241-FEE2-452B-8B42-4A46EDD0955E";
paths = (
{
closed = 1;
nodes = (
"417.077 -40 LINE",
"442.997 107 LINE",
"588.997 107 LINE",
"617.209 267 LINE",
"471.209 267 LINE",
"490.253 375 LINE",
"636.253 375 LINE",
"664.641 536 LINE",
"518.641 536 LINE",
"544.385 682 LINE",
"283.385 682 LINE",
"257.641 536 LINE",
"111.641 536 LINE",
"83.253 375 LINE",
"229.253 375 LINE",
"210.209 267 LINE",
"64.209 267 LINE",
"35.997 107 LINE",
"181.997 107 LINE",
"156.077 -40 LINE"
);
}
);
width = 587.64;
}
);
leftKerningGroup = daggerdbl;
rightKerningGroup = daggerdbl;
unicode = 2021;
},
{
glyphname = numero;
lastChange = "2019-09-10 19:27:05 +0000";
layers = (
{
layerId = "2BED5241-FEE2-452B-8B42-4A46EDD0955E";
paths = (
{
closed = 1;
nodes = (
"1172.159 120 LINE",
"1198.608 270 LINE",
"863.608 270 LINE",
"837.159 120 LINE"
);
},
{
closed = 1;
nodes = (
"1132.714 350 LINE",
"1262.994 448 LINE",
"1296.673 639 LINE",
"1200.953 737 LINE",
"1026.953 737 LINE",
"895.673 639 LINE",
"861.994 448 LINE",
"958.714 350 LINE"
);
},
{
closed = 1;
nodes = (
"1047.975 584 LINE",
"1125.975 584 LINE",
"1111.692 503 LINE",
"1033.692 503 LINE"
);
},
{
closed = 1;
nodes = (
"306.41 0 LINE",
"374.849 385.266 LINE",
"473.688 0 LINE",
"730.41 0 LINE",
"860.363 737 LINE",
"598.953 737 LINE",
"533.804 367.52 LINE",
"433.342 737 LINE",
"174.953 737 LINE",
"45 0 LINE"
);
}
);
width = 1234.67;
}
);
leftMetricsKey = N;
unicode = 2116;
},
{
glyphname = apostrophemod;
lastChange = "2019-09-10 19:27:05 +0000";
layers = (
{
layerId = "2BED5241-FEE2-452B-8B42-4A46EDD0955E";
paths = (
{
closed = 1;
nodes = (
"286.173 432 LINE",
"476.953 737 LINE",
"223.953 737 LINE",
"120.173 432 LINE"
);
}
);
width = 390.95;
}
);
unicode = 02BC;
},
{
glyphname = doubleprimemod;
lastChange = "2019-09-10 19:27:05 +0000";
layers = (
{
layerId = "2BED5241-FEE2-452B-8B42-4A46EDD0955E";
paths = (
{
closed = 1;
nodes = (
"556.173 432 LINE",
"746.953 737 LINE",
"498.953 737 LINE",
"395.173 432 LINE"
);
},
{
closed = 1;
nodes = (
"281.173 432 LINE",
"471.953 737 LINE",
"223.953 737 LINE",
"120.173 432 LINE"
);
}
);
width = 660.95;
}
);
unicode = 02BA;
},
{
glyphname = primemod;
lastChange = "2019-09-10 19:27:05 +0000";
layers = (
{
layerId = "2BED5241-FEE2-452B-8B42-4A46EDD0955E";
paths = (
{
closed = 1;
nodes = (
"281.173 432 LINE",
"471.953 737 LINE",
"223.953 737 LINE",
"120.173 432 LINE"
);
}
);
width = 385.95;
}
);
unicode = 02B9;
},
{
glyphname = dotaccentcomb;
lastChange = "2019-09-10 19:27:05 +0000";
layers = (
{
anchors = (
{
name = _top;
position = "{171.329, 523}";
}
);
layerId = "2BED5241-FEE2-452B-8B42-4A46EDD0955E";
paths = (
{
closed = 1;
nodes = (
"316.998 575 LINE",
"344.858 733 LINE",
"71.858 733 LINE",
"43.998 575 LINE"
);
}
);
width = 308.86;
}
);
unicode = 0307;
},
{
glyphname = gravecomb;
lastChange = "2019-09-10 19:27:05 +0000";
layers = (
{
anchors = (
{
name = _top;
position = "{403.953, 737}";
}
);
layerId = "2BED5241-FEE2-452B-8B42-4A46EDD0955E";
paths = (
{
closed = 1;
nodes = (
"497.122 789 LINE",
"416.863 952 LINE",
"201.863 952 LINE",
"335.122 789 LINE"
);
}
);
width = 391;
}
);
unicode = 0300;
},
{
glyphname = acutecomb;
lastChange = "2019-09-11 18:13:10 +0000";
layers = (
{
anchors = (
{
name = _top;
position = "{261.953, 737}";
}
);
layerId = "2BED5241-FEE2-452B-8B42-4A46EDD0955E";
paths = (
{
closed = 1;
nodes = (
"351.122 789 LINE",
"541.863 952 LINE",
"300.863 952 LINE",
"193.122 789 LINE"
);
}
);
width = 391;
}
);
unicode = 0301;
},
{
glyphname = hungarumlautcomb;
lastChange = "2019-09-10 19:27:05 +0000";
layers = (
{
anchors = (
{
name = _top;
position = "{367.953, 737}";
}
);
layerId = "2BED5241-FEE2-452B-8B42-4A46EDD0955E";
paths = (
{
closed = 1;
nodes = (
"608.122 789 LINE",
"801.216 954 LINE",
"556.216 954 LINE",
"430.122 789 LINE"
);
},
{
closed = 1;
nodes = (
"340.122 789 LINE",
"533.216 954 LINE",
"288.216 954 LINE",
"162.122 789 LINE"
);
}
);
width = 656;
}
);
unicode = 030B;
},
{
glyphname = circumflexcomb;
lastChange = "2019-09-10 19:27:05 +0000";
layers = (
{
anchors = (
{
name = _top;
position = "{420.953, 737}";
}
);
layerId = "2BED5241-FEE2-452B-8B42-4A46EDD0955E";
paths = (
{
closed = 1;
nodes = (
"354.122 789 LINE",
"443.523 865 LINE",
"506.122 789 LINE",
"693.122 789 LINE",
"598.863 952 LINE",
"313.863 952 LINE",
"162.122 789 LINE"
);
}
);
width = 582;
}
);
unicode = 0302;
},
{
glyphname = caroncomb;
lastChange = "2019-09-10 19:27:05 +0000";
layers = (
{
anchors = (
{
name = _top;
position = "{420.953, 737}";
}
);
layerId = "2BED5241-FEE2-452B-8B42-4A46EDD0955E";
paths = (
{
closed = 1;
nodes = (
"534.863 952 LINE",
"445.462 876 LINE",
"382.863 952 LINE",
"195.863 952 LINE",
"290.122 789 LINE",
"575.122 789 LINE",
"726.863 952 LINE"
);
}
);
width = 582;
}
);
unicode = 030C;
},
{
glyphname = brevecomb;
lastChange = "2019-09-10 19:27:05 +0000";
layers = (
{
anchors = (
{
name = _top;
position = "{399.953, 737}";
}
);
layerId = "2BED5241-FEE2-452B-8B42-4A46EDD0955E";
paths = (
{
closed = 1;
nodes = (
"550.122 789 LINE",
"668.639 877 LINE",
"681.863 952 LINE",
"485.863 952 LINE",
"476.694 900 LINE",
"374.694 900 LINE",
"383.863 952 LINE",
"197.863 952 LINE",
"184.639 877 LINE",
"272.122 789 LINE"
);
}
);
width = 540;
}
);
unicode = 0306;
},
{
glyphname = ringcomb;
lastChange = "2019-09-10 19:27:05 +0000";
layers = (
{
anchors = (
{
name = _top;
position = "{296.453, 737}";
}
);
layerId = "2BED5241-FEE2-452B-8B42-4A46EDD0955E";
paths = (
{
closed = 1;
nodes = (
"373.122 789 LINE",
"462.523 865 LINE",
"478.04 953 LINE",
"415.44 1029 LINE",
"280.44 1029 LINE",
"191.04 953 LINE",
"175.523 865 LINE",
"238.122 789 LINE"
);
},
{
closed = 1;
nodes = (
"302.194 900 LINE",
"305.192 917 LINE",
"321.837 932 LINE",
"338.837 932 LINE",
"351.192 917 LINE",
"348.194 900 LINE",
"330.726 886 LINE",
"313.726 886 LINE"
);
}
);
width = 333;
}
);
unicode = 030A;
},
{
glyphname = tildecomb;
lastChange = "2019-09-10 19:27:05 +0000";
layers = (
{
anchors = (
{
name = _top;
position = "{413.953, 737}";
}
);
layerId = "2BED5241-FEE2-452B-8B42-4A46EDD0955E";
paths = (
{
closed = 1;
nodes = (
"598.122 789 LINE",
"694.818 861 LINE",
"710.511 950 LINE",
"558.511 950 LINE",
"552.692 917 LINE",
"534.047 902 LINE",
"516.047 902 LINE",
"476.745 957 LINE",
"278.745 957 LINE",
"182.697 883 LINE",
"167.18 795 LINE",
"319.18 795 LINE",
"324.822 827 LINE",
"343.644 843 LINE",
"360.644 843 LINE",
"401.122 789 LINE"
);
}
);
width = 569;
}
);
unicode = 0303;
},
{
glyphname = macroncomb;
lastChange = "2019-09-10 19:27:05 +0000";
layers = (
{
anchors = (
{
name = _top;
position = "{393.953, 737}";
}
);
layerId = "2BED5241-FEE2-452B-8B42-4A46EDD0955E";
paths = (
{
closed = 1;
nodes = (
"681.122 789 LINE",
"707.395 938 LINE",
"151.395 938 LINE",
"125.122 789 LINE"
);
}
);
width = 527;
}
);
unicode = 0304;
},
{
glyphname = hookabovecomb;
lastChange = "2019-09-10 19:27:05 +0000";
layers = (
{
anchors = (
{
name = _top;
position = "{315.953, 737}";
}
);
layerId = "2BED5241-FEE2-452B-8B42-4A46EDD0955E";
paths = (
{
closed = 1;
nodes = (
"409.122 789 LINE",
"415.999 828 LINE",
"457.999 828 LINE",
"512.699 866 LINE",
"533.682 985 LINE",
"492.088 1027 LINE",
"259.088 1027 LINE",
"196.682 985 LINE",
"185.221 920 LINE",
"335.221 920 LINE",
"342.45 961 LINE",
"374.45 961 LINE",
"362.813 895 LINE",
"298.813 895 LINE",
"254.699 866 LINE",
"241.122 789 LINE"
);
}
);
width = 383;
}
);
unicode = 0309;
},
{
glyphname = breveinvertedcomb;
lastChange = "2019-09-10 19:27:05 +0000";
layers = (
{
anchors = (
{
name = _top;
position = "{399.953, 737}";
}
);
layerId = "2BED5241-FEE2-452B-8B42-4A46EDD0955E";
paths = (
{
closed = 1;
nodes = (
"358.122 789 LINE",
"367.291 841 LINE",
"469.291 841 LINE",
"460.122 789 LINE",
"656.122 789 LINE",
"669.347 864 LINE",
"581.863 952 LINE",
"293.863 952 LINE",
"175.347 864 LINE",
"162.122 789 LINE"
);
}
);
width = 661;
}
);
unicode = 0311;
},
{
glyphname = commaturnedabovecomb;
lastChange = "2019-09-10 19:27:05 +0000";
layers = (
{
anchors = (
{
name = _top;
position = "{278.953, 737}";
}
);
layerId = "2BED5241-FEE2-452B-8B42-4A46EDD0955E";
paths = (
{
closed = 1;
nodes = (
"409.061 788.652 LINE",
"492.152 970.652 LINE",
"342.152 970.652 LINE",
"177.061 788.652 LINE"
);
}
);
width = 378;
}
);
unicode = 0312;
},
{
glyphname = horncomb;
lastChange = "2019-09-10 19:27:05 +0000";
layers = (
{
anchors = (
{
name = _horn;
position = "{145.675, 622}";
}
);
layerId = "2BED5241-FEE2-452B-8B42-4A46EDD0955E";
paths = (
{
closed = 1;
nodes = (
"313.859 572 LINE",
"503.182 778 LINE",
"272.182 778 LINE",
"216.376 660 LINE",
"152.376 660 LINE",
"136.859 572 LINE"
);
}
);
width = 383;
}
);
unicode = 031B;
},
{
glyphname = dotbelowcomb;
lastChange = "2019-09-10 19:27:05 +0000";
layers = (
{
anchors = (
{
name = _botton;
position = "{175.5, 0}";
}
);
layerId = "2BED5241-FEE2-452B-8B42-4A46EDD0955E";
paths = (
{
closed = 1;
nodes = (
"275.145 -209.013 LINE",
"303.005 -51.013 LINE",
"30.005 -51.013 LINE",
"2.145 -209.013 LINE"
);
}
);
width = 346;
}
);
unicode = 0323;
},
{
glyphname = dieresisbelowcomb;
lastChange = "2019-09-10 19:27:05 +0000";
layers = (
{
anchors = (
{
name = _botton;
position = "{328, 0}";
}
);
layerId = "2BED5241-FEE2-452B-8B42-4A46EDD0955E";
paths = (
{
closed = 1;
nodes = (
"568.971 -210 LINE",
"596.831 -52 LINE",
"352.831 -52 LINE",
"324.971 -210 LINE"
);
},
{
closed = 1;
nodes = (
"256.971 -210 LINE",
"284.831 -52 LINE",
"40.831 -52 LINE",
"12.971 -210 LINE"
);
}
);
width = 660;
}
);
unicode = 0324;
},
{
glyphname = commaaccentcomb;
lastChange = "2019-09-10 19:27:05 +0000";
layers = (
{
anchors = (
{
name = _botton;
position = "{190, 0}";
}
);
layerId = "2BED5241-FEE2-452B-8B42-4A46EDD0955E";
paths = (
{
closed = 1;
nodes = (
"132.739 -234 LINE",
"297.831 -52 LINE",
"65.831 -52 LINE",
"-17.261 -234 LINE"
);
}
);
width = 340;
}
);
unicode = 0326;
},
{
glyphname = cedillacomb;
lastChange = "2019-09-10 19:27:05 +0000";
layers = (
{
anchors = (
{
name = _botton;
position = "{151, 0}";
}
);
layerId = "2BED5241-FEE2-452B-8B42-4A46EDD0955E";
paths = (
{
closed = 1;
nodes = (
"174.959 -125 LINE",
"260 0 LINE",
"43 0 LINE",
"0.959 -125 LINE"
);
}
);
width = 281;
}
);
unicode = 0327;
},
{
glyphname = ogonekcomb;
lastChange = "2019-09-10 19:27:05 +0000";
layers = (
{
anchors = (
{
name = _ogonek;
position = "{201, 0}";
}
);
layerId = "2BED5241-FEE2-452B-8B42-4A46EDD0955E";
paths = (
{
closed = 1;
nodes = (
"181.322 -191 LINE",
"203.715 -64 LINE",
"175.715 -64 LINE",
"162.184 -50 LINE",
"166.415 -26 LINE",
"201 0 LINE",
"80 0 LINE",
"29.181 -33 LINE",
"13.488 -122 LINE",
"84.322 -191 LINE"
);
}
);
width = 229;
}
);
unicode = 0328;
},
{
glyphname = brevebelowcomb;
lastChange = "2019-09-10 19:27:05 +0000";
layers = (
{
anchors = (
{
name = _botton;
position = "{270, 0}";
}
);
layerId = "2BED5241-FEE2-452B-8B42-4A46EDD0955E";
paths = (
{
closed = 1;
nodes = (
"376.09 -215 LINE",
"494.606 -127 LINE",
"507.831 -52 LINE",
"311.831 -52 LINE",
"302.662 -104 LINE",
"200.662 -104 LINE",
"209.831 -52 LINE",
"13.831 -52 LINE",
"0.606 -127 LINE",
"88.09 -215 LINE"
);
}
);
width = 661;
}
);
unicode = 032E;
},
{
glyphname = macronbelowcomb;
lastChange = "2019-09-10 19:27:05 +0000";
layers = (
{
anchors = (
{
name = _botton;
position = "{264, 0}";
}
);
layerId = "2BED5241-FEE2-452B-8B42-4A46EDD0955E";
paths = (
{
closed = 1;
nodes = (
"506.558 -201 LINE",
"532.831 -52 LINE",
"-23.169 -52 LINE",
"-49.442 -201 LINE"
);
}
);
width = 527;
}
);
unicode = 0331;
},
{
glyphname = strokeshortcomb;
lastChange = "2019-09-10 19:27:05 +0000";
layers = (
{
anchors = (
{
name = _center;
position = "{270.727, 265}";
}
);
layerId = "2BED5241-FEE2-452B-8B42-4A46EDD0955E";
paths = (
{
closed = 1;
nodes = (
"493.56 196 LINE",
"517.893 334 LINE",
"88.893 334 LINE",
"64.56 196 LINE"
);
}
);
width = 489;
}
);
unicode = 0335;
},
